<?xml version="1.0" standalone="no"?>
<!DOCTYPE svg PUBLIC "-//W3C//DTD SVG 1.1//EN" "http://www.w3.org/Graphics/SVG/1.1/DTD/svg11.dtd" >
<svg xmlns="http://www.w3.org/2000/svg">
<metadata>Generated by IcoMoon</metadata>
<defs>
<font id="dpl20_icon" horiz-adv-x="1024">
<font-face units-per-em="1024" ascent="960" descent="-64" />
<missing-glyph horiz-adv-x="1024" />
<glyph unicode="&#x20;" horiz-adv-x="512" d="" />
<glyph unicode="&#xe900;" glyph-name="up_down_s" d="M401.673 536.994c-33.325-33.325-87.355-33.325-120.68 0s-33.325 87.355 0 120.68l170.667 170.667c33.325 33.325 87.355 33.325 120.68 0l170.667-170.667c33.325-33.325 33.325-87.355 0-120.68s-87.355-33.325-120.68 0l-110.327 110.327-110.327-110.327zM622.327 316.34c33.325 33.325 87.355 33.325 120.68 0s33.325-87.355 0-120.68l-170.667-170.667c-33.325-33.325-87.355-33.325-120.68 0l-170.667 170.667c-33.325 33.325-33.325 87.355 0 120.68s87.355 33.325 120.68 0l110.327-110.327 110.327 110.327z" />
<glyph unicode="&#xe901;" glyph-name="up_s" d="M231.006 195.661c-33.325-33.325-87.355-33.325-120.68 0s-33.325 87.355 0 120.68l341.333 341.333c33.325 33.325 87.355 33.325 120.68 0l341.333-341.333c33.325-33.325 33.325-87.355 0-120.68s-87.355-33.325-120.68 0l-280.994 280.994-280.994-280.994z" />
<glyph unicode="&#xe902;" glyph-name="down_s" d="M792.994 657.673c33.325 33.325 87.355 33.325 120.68 0s33.325-87.355 0-120.68l-341.333-341.333c-33.325-33.325-87.355-33.325-120.68 0l-341.333 341.333c-33.325 33.325-33.325 87.355 0 120.68s87.355 33.325 120.68 0l280.994-280.994 280.994 280.994z" />
<glyph unicode="&#xe903;" glyph-name="left_s" d="M743.006 145.673c33.325-33.325 33.325-87.355 0-120.68s-87.355-33.325-120.68 0l-341.333 341.333c-33.325 33.325-33.325 87.355 0 120.68l341.333 341.333c33.325 33.325 87.355 33.325 120.68 0s33.325-87.355 0-120.68l-280.994-280.994 280.994-280.994z" />
<glyph unicode="&#xe904;" glyph-name="right_s" d="M280.994 707.661c-33.325 33.325-33.325 87.355 0 120.68s87.355 33.325 120.68 0l341.333-341.333c33.325-33.325 33.325-87.355 0-120.68l-341.333-341.333c-33.325-33.325-87.355-33.325-120.68 0s-33.325 87.355 0 120.68l280.994 280.994-280.994 280.994z" />
<glyph unicode="&#xe905;" glyph-name="double_left_s" d="M572.34 145.673c33.325-33.325 33.325-87.355 0-120.68s-87.355-33.325-120.68 0l-341.333 341.333c-33.325 33.325-33.325 87.355 0 120.68l341.333 341.333c33.325 33.325 87.355 33.325 120.68 0s33.325-87.355 0-120.68l-280.994-280.994 280.994-280.994zM999.006 145.673c33.325-33.325 33.325-87.355 0-120.68s-87.355-33.325-120.68 0l-341.333 341.333c-33.325 33.325-33.325 87.355 0 120.68l341.333 341.333c33.325 33.325 87.355 33.325 120.68 0s33.325-87.355 0-120.68l-280.994-280.994 280.994-280.994z" />
<glyph unicode="&#xe906;" glyph-name="double_right_s" d="M110.327 707.661c-33.325 33.325-33.325 87.355 0 120.68s87.355 33.325 120.68 0l341.333-341.333c33.325-33.325 33.325-87.355 0-120.68l-341.333-341.333c-33.325-33.325-87.355-33.325-120.68 0s-33.325 87.355 0 120.68l280.994 280.994-280.994 280.994zM536.994 707.661c-33.325 33.325-33.325 87.355 0 120.68s87.355 33.325 120.68 0l341.333-341.333c33.325-33.325 33.325-87.355 0-120.68l-341.333-341.333c-33.325-33.325-87.355-33.325-120.68 0s-33.325 87.355 0 120.68l280.994 280.994-280.994 280.994z" />
<glyph unicode="&#xe907;" glyph-name="wrong_s" d="M512 547.347l238.327 238.327c33.325 33.325 87.355 33.325 120.68 0s33.325-87.355 0-120.68l-238.327-238.327 238.327-238.327c33.325-33.325 33.325-87.355 0-120.68s-87.355-33.325-120.68 0l-238.327 238.327-238.327-238.327c-33.325-33.325-87.355-33.325-120.68 0s-33.325 87.355 0 120.68l238.327 238.327-238.327 238.327c-33.325 33.325-33.325 87.355 0 120.68s87.355 33.325 120.68 0l238.327-238.327z" />
<glyph unicode="&#xe908;" glyph-name="plus" d="M455.111 483.556v284.444c0 31.419 25.47 56.889 56.889 56.889s56.889-25.47 56.889-56.889v-284.444h284.444c31.419 0 56.889-25.47 56.889-56.889s-25.47-56.889-56.889-56.889h-284.444v-284.444c0-31.419-25.47-56.889-56.889-56.889s-56.889 25.47-56.889 56.889v284.444h-284.444c-31.419 0-56.889 25.47-56.889 56.889s25.47 56.889 56.889 56.889h284.444z" />
<glyph unicode="&#xe909;" glyph-name="minus" d="M170.667 369.778c-31.419 0-56.889 25.47-56.889 56.889s25.47 56.889 56.889 56.889h682.667c31.419 0 56.889-25.47 56.889-56.889s-25.47-56.889-56.889-56.889h-682.667z" />
<glyph unicode="&#xe90a;" glyph-name="check" d="M806.728 743.73c18.018 25.739 53.489 31.999 79.229 13.982s31.999-53.489 13.982-79.229l-398.222-568.889c-20.285-28.979-61.819-32.616-86.832-7.603l-284.444 284.444c-22.216 22.216-22.216 58.237 0 80.453s58.237 22.216 80.453 0l236.498-236.498 359.337 513.339z" />
<glyph unicode="&#xe90b;" glyph-name="wrong" d="M512 507.12l244.218 244.218c22.216 22.216 58.237 22.216 80.453 0s22.216-58.237 0-80.453l-244.218-244.218 244.218-244.218c22.216-22.216 22.216-58.237 0-80.453s-58.237-22.216-80.453 0l-244.218 244.218-244.218-244.218c-22.216-22.216-58.237-22.216-80.453 0s-22.216 58.237 0 80.453l244.218 244.218-244.218 244.218c-22.216 22.216-22.216 58.237 0 80.453s58.237 22.216 80.453 0l244.218-244.218z" />
<glyph unicode="&#xe90c;" glyph-name="plus_circle" d="M455.111 483.556v113.778c0 31.419 25.47 56.889 56.889 56.889s56.889-25.47 56.889-56.889v-113.778h113.778c31.419 0 56.889-25.47 56.889-56.889s-25.47-56.889-56.889-56.889h-113.778v-113.778c0-31.419-25.47-56.889-56.889-56.889s-56.889 25.47-56.889 56.889v113.778h-113.778c-31.419 0-56.889 25.47-56.889 56.889s25.47 56.889 56.889 56.889h113.778zM512-28.444c-251.351 0-455.111 203.76-455.111 455.111s203.76 455.111 455.111 455.111c251.351 0 455.111-203.76 455.111-455.111s-203.76-455.111-455.111-455.111zM512 85.334c188.513 0 341.333 152.82 341.333 341.333s-152.82 341.333-341.333 341.333c-188.513 0-341.333-152.82-341.333-341.333s152.82-341.333 341.333-341.333z" />
<glyph unicode="&#xe90d;" glyph-name="minus_circle" d="M512-28.444c-251.351 0-455.111 203.76-455.111 455.111s203.76 455.111 455.111 455.111c251.351 0 455.111-203.76 455.111-455.111s-203.76-455.111-455.111-455.111zM512 85.334c188.513 0 341.333 152.82 341.333 341.333s-152.82 341.333-341.333 341.333c-188.513 0-341.333-152.82-341.333-341.333s152.82-341.333 341.333-341.333zM341.333 369.778c-31.419 0-56.889 25.47-56.889 56.889s25.47 56.889 56.889 56.889h341.333c31.419 0 56.889-25.47 56.889-56.889s-25.47-56.889-56.889-56.889h-341.333z" />
<glyph unicode="&#xe90e;" glyph-name="wrong_circle" d="M512 507.12l80.453 80.453c22.216 22.216 58.237 22.216 80.453 0s22.216-58.237 0-80.453l-80.453-80.453 80.453-80.453c22.216-22.216 22.216-58.237 0-80.453s-58.237-22.216-80.453 0l-80.453 80.453-80.453-80.453c-22.216-22.216-58.237-22.216-80.453 0s-22.216 58.237 0 80.453l80.453 80.453-80.453 80.453c-22.216 22.216-22.216 58.237 0 80.453s58.237 22.216 80.453 0l80.453-80.453zM512-28.444c-251.351 0-455.111 203.76-455.111 455.111s203.76 455.111 455.111 455.111c251.351 0 455.111-203.76 455.111-455.111s-203.76-455.111-455.111-455.111zM512 85.334c188.513 0 341.333 152.82 341.333 341.333s-152.82 341.333-341.333 341.333c-188.513 0-341.333-152.82-341.333-341.333s152.82-341.333 341.333-341.333z" />
<glyph unicode="&#xe90f;" glyph-name="right_circle" d="M512-28.444c-251.351 0-455.111 203.76-455.111 455.111s203.76 455.111 455.111 455.111c251.351 0 455.111-203.76 455.111-455.111s-203.76-455.111-455.111-455.111zM512 85.334c188.513 0 341.333 152.82 341.333 341.333s-152.82 341.333-341.333 341.333c-188.513 0-341.333-152.82-341.333-341.333s152.82-341.333 341.333-341.333zM642.44 580.671c22.216 22.216 58.237 22.216 80.453 0s22.216-58.237 0-80.453l-227.556-227.556c-22.216-22.216-58.237-22.216-80.453 0l-113.778 113.778c-22.216 22.216-22.216 58.237 0 80.453s58.237 22.216 80.453 0l73.551-73.551 187.329 187.329z" />
<glyph unicode="&#xe910;" glyph-name="info_circle" d="M455.111 426.667c0 31.419 25.47 56.889 56.889 56.889s56.889-25.47 56.889-56.889v-170.667c0-31.419-25.47-56.889-56.889-56.889s-56.889 25.47-56.889 56.889v170.667zM512 540.445c-31.419 0-56.889 25.47-56.889 56.889s25.47 56.889 56.889 56.889c31.419 0 56.889-25.47 56.889-56.889s-25.47-56.889-56.889-56.889zM512-28.444c-251.351 0-455.111 203.76-455.111 455.111s203.76 455.111 455.111 455.111c251.351 0 455.111-203.76 455.111-455.111s-203.76-455.111-455.111-455.111zM512 85.334c188.513 0 341.333 152.82 341.333 341.333s-152.82 341.333-341.333 341.333c-188.513 0-341.333-152.82-341.333-341.333s152.82-341.333 341.333-341.333z" />
<glyph unicode="&#xe911;" glyph-name="exclamation_circle" d="M455.111 597.334c0 31.419 25.47 56.889 56.889 56.889s56.889-25.47 56.889-56.889v-170.667c0-31.419-25.47-56.889-56.889-56.889s-56.889 25.47-56.889 56.889v170.667zM512 199.111c-31.419 0-56.889 25.47-56.889 56.889s25.47 56.889 56.889 56.889c31.419 0 56.889-25.47 56.889-56.889s-25.47-56.889-56.889-56.889zM512-28.444c-251.351 0-455.111 203.76-455.111 455.111s203.76 455.111 455.111 455.111c251.351 0 455.111-203.76 455.111-455.111s-203.76-455.111-455.111-455.111zM512 85.334c188.513 0 341.333 152.82 341.333 341.333s-152.82 341.333-341.333 341.333c-188.513 0-341.333-152.82-341.333-341.333s152.82-341.333 341.333-341.333z" />
<glyph unicode="&#xe912;" glyph-name="bug" d="M284.457 540.445v-284.444c0-94.257 76.41-170.667 170.667-170.667h113.778c94.257 0 170.667 76.41 170.667 170.667v284.444h-455.111zM231.279 80.474l-92.048-46.024c-28.102-14.051-62.274-2.66-76.324 25.441s-2.66 62.274 25.441 76.324l91.994 45.997c-6.303 23.532-9.664 48.267-9.664 73.787v56.889h-56.889c-31.419 0-56.889 25.47-56.889 56.889s25.47 56.889 56.889 56.889h56.889v135.507l-82.33 41.165c-28.102 14.051-39.492 48.223-25.441 76.324s48.223 39.492 76.324 25.441l101.766-50.883h43.459c0 125.675 101.88 227.556 227.556 227.556s227.556-101.88 227.556-227.556h43.459l101.766 50.883c28.102 14.051 62.274 2.66 76.324-25.441s2.66-62.274-25.441-76.324l-82.33-41.165v-135.507h56.889c31.419 0 56.889-25.47 56.889-56.889s-25.47-56.889-56.889-56.889h-56.889v-56.889c0-25.52-3.361-50.255-9.664-73.787l91.994-45.997c28.102-14.051 39.492-48.223 25.441-76.324s-48.223-39.492-76.324-25.441l-92.048 46.024c-52.075-66.318-132.985-108.919-223.844-108.919h-113.778c-90.86 0-171.769 42.601-223.844 108.919zM398.235 654.223h227.556c0 62.838-50.94 113.778-113.778 113.778s-113.778-50.94-113.778-113.778zM455.124 312.889c0 31.419 25.47 56.889 56.889 56.889s56.889-25.47 56.889-56.889v-227.556c0-31.419-25.47-56.889-56.889-56.889s-56.889 25.47-56.889 56.889v227.556z" />
<glyph unicode="&#xe913;" glyph-name="date" d="M170.667 654.223v-568.889h682.667v568.889h-682.667zM113.778 881.778h796.444c31.419 0 56.889-25.47 56.889-56.889v-796.444c0-31.419-25.47-56.889-56.889-56.889h-796.444c-31.419 0-56.889 25.47-56.889 56.889v796.444c0 31.419 25.47 56.889 56.889 56.889zM341.333 711.111c31.419 0 56.889 25.47 56.889 56.889s-25.47 56.889-56.889 56.889c-31.419 0-56.889-25.47-56.889-56.889s25.47-56.889 56.889-56.889zM682.667 711.111c31.419 0 56.889 25.47 56.889 56.889s-25.47 56.889-56.889 56.889c-31.419 0-56.889-25.47-56.889-56.889s25.47-56.889 56.889-56.889zM426.667 455.111c-23.564 0-42.667 19.103-42.667 42.667s19.103 42.667 42.667 42.667h170.667c34.656 0 54.854-39.132 34.78-67.382-51.865-72.985-77.446-149.73-77.446-231.285 0-23.564-19.103-42.667-42.667-42.667s-42.667 19.103-42.667 42.667c0 74.464 17.476 145.721 52.135 213.333h-94.801z" />
<glyph unicode="&#xe914;" glyph-name="delete" d="M910.222 597.334v-568.889c0-31.419-25.47-56.889-56.889-56.889h-682.667c-31.419 0-56.889 25.47-56.889 56.889v568.889c-31.419 0-56.889 25.47-56.889 56.889s25.47 56.889 56.889 56.889h796.444c31.419 0 56.889-25.47 56.889-56.889s-25.47-56.889-56.889-56.889zM796.444 597.334h-568.889v-512h568.889v512zM341.333 824.889c0 31.419 25.47 56.889 56.889 56.889h227.556c31.419 0 56.889-25.47 56.889-56.889s-25.47-56.889-56.889-56.889h-227.556c-31.419 0-56.889 25.47-56.889 56.889zM398.222 540.445c31.419 0 56.889-25.47 56.889-56.889v-284.444c0-31.419-25.47-56.889-56.889-56.889s-56.889 25.47-56.889 56.889v284.444c0 31.419 25.47 56.889 56.889 56.889zM625.778 540.445c31.419 0 56.889-25.47 56.889-56.889v-284.444c0-31.419-25.47-56.889-56.889-56.889s-56.889 25.47-56.889 56.889v284.444c0 31.419 25.47 56.889 56.889 56.889z" />
<glyph unicode="&#xe915;" glyph-name="editor" d="M113.778-28.202c-31.419 0-56.889 25.47-56.889 56.889s25.47 56.889 56.889 56.889h796.444c31.419 0 56.889-25.47 56.889-56.889s-25.47-56.889-56.889-56.889h-796.444zM868.517 735.765c22.216-22.216 22.216-58.237 0-80.453l-494.649-494.649c-10.669-10.669-25.139-16.662-40.227-16.662h-162.975c-31.419 0-56.889 25.47-56.889 56.889v162.916c0 15.089 5.994 29.56 16.664 40.229l494.704 494.649c22.217 22.215 58.235 22.214 80.451-0.002l162.92-162.916zM227.556 255.503h81.351l431.388 431.388-81.351 81.351-431.388-431.388v-81.351z" />
<glyph unicode="&#xe916;" glyph-name="caret_down_s" d="M750.327 597.334h-476.654c-23.564 0-42.667-19.103-42.667-42.667 0-11.316 4.495-22.168 12.497-30.17l238.327-238.327c16.662-16.662 43.677-16.662 60.34 0l238.327 238.327c16.662 16.662 16.662 43.677 0 60.34-8.002 8.002-18.854 12.497-30.17 12.497z" />
<glyph unicode="&#xe917;" glyph-name="internationalization" d="M174.109 378.005l88.461 26.511c20.044 6.007 41.769 0.525 56.563-14.273l110.675-110.703 103.095-34.017c22.277-7.35 37.757-27.621 38.985-51.047l5.393-102.906c157.286 30.462 276.052 168.91 276.052 335.097 0 23.484-2.372 46.415-6.889 68.565l-61.656-22.149-48.153-144.458c-9.922-29.765-42.069-45.878-71.853-36.015l-171.791 56.889c-8.51 2.818-16.234 7.608-22.542 13.979l-112.653 113.778c-17.155 17.327-21.361 43.659-10.457 65.468l47.784 95.569-22.735 99.943c-118.906-53.363-201.722-172.794-201.722-311.569 0-16.521 1.174-32.768 3.442-48.662zM208.851 269.64c49.739-95.828 143.583-165.086 254.644-180.886l-3.192 60.913-78.99 26.064c-8.445 2.786-16.119 7.514-22.406 13.803l-96.217 96.242-53.839-16.135zM482.587 766.751l27.996-123.073c2.92-12.835 1.298-26.286-4.589-38.060l-38.648-77.295 74.359-75.102 104.946-34.753 38.934 116.803c5.516 16.549 18.32 29.652 34.736 35.549l84.986 30.53c-59.569 99.805-168.632 166.649-293.308 166.649-9.909 0-19.719-0.422-29.413-1.25zM512-28.444c-251.351 0-455.111 203.76-455.111 455.111s203.76 455.111 455.111 455.111c251.351 0 455.111-203.76 455.111-455.111s-203.76-455.111-455.111-455.111z" />
<glyph unicode="&#xe918;" glyph-name="link" d="M717.199 744.431l-100.569-100.569c-22.216-22.216-58.237-22.216-80.453 0s-22.216 58.237 0 80.453l140.8 140.8c22.218 22.218 58.242 22.216 80.458-0.005l241.38-241.436c22.215-22.221 22.209-58.244-0.013-80.457l-261.492-261.378c-88.55-88.626-233.184-88.626-321.793-0.017-22.216 22.216-22.216 58.237 0 80.453s58.237 22.216 80.453 0c44.17-44.17 116.738-44.17 160.878 0.009l221.279 221.183-160.927 160.965zM355.162 60.524l100.569 100.569c22.216 22.216 58.237 22.216 80.453 0s22.216-58.237 0-80.453l-140.8-140.8c-22.218-22.218-58.242-22.216-80.458 0.005l-241.38 241.436c-22.215 22.221-22.209 58.244 0.013 80.457l261.492 261.378c88.55 88.626 233.184 88.626 321.793 0.017 22.216-22.216 22.216-58.237 0-80.453s-58.237-22.216-80.453 0c-44.17 44.17-116.738 44.17-160.878-0.009l-221.279-221.183 160.927-160.965z" />
<glyph unicode="&#xe919;" glyph-name="logout" d="M746.748 816.633c26.905-16.226 35.561-51.191 19.335-78.095s-51.191-35.561-78.095-19.335c-52.682 31.772-113.017 48.797-175.988 48.797-188.513 0-341.333-152.82-341.333-341.333s152.82-341.333 341.333-341.333c64.501 0 126.23 17.865 179.772 51.113 26.691 16.575 61.765 8.373 78.34-18.318s8.373-61.765-18.318-78.34c-71.435-44.359-153.926-68.233-239.794-68.233-251.351 0-455.111 203.76-455.111 455.111s203.76 455.111 455.111 455.111c83.827 0 164.454-22.751 234.748-65.145zM739.556 483.556v98.499c0 13.485 5.98 26.275 16.327 34.922 19.287 16.118 47.988 13.549 64.106-5.737l134.161-160.537c19.193-22.967 17.308-56.878-4.313-77.575l-133.299-127.604c-8.471-8.109-19.745-12.635-31.471-12.635-25.135 0-45.511 20.376-45.511 45.511v91.379h-170.667c-31.419 0-56.889 25.47-56.889 56.889s25.47 56.889 56.889 56.889h170.667z" />
<glyph unicode="&#xe91a;" glyph-name="message" d="M745.635 230.559c-3.95 7.899-6.006 16.61-6.006 25.441v227.556c0 125.675-101.88 227.556-227.556 227.556s-227.556-101.88-227.556-227.556v-227.556c0-8.832-2.056-17.542-6.006-25.441l-15.724-31.447h498.57l-15.724 31.447zM455.375 820.202c-0.126 1.546-0.19 3.109-0.19 4.688 0 31.419 25.47 56.889 56.889 56.889s56.889-25.47 56.889-56.889c0-1.578-0.064-3.142-0.19-4.688 161.528-27.005 284.635-167.449 284.635-336.646v-214.126l50.883-101.766c18.913-37.825-8.593-82.33-50.883-82.33h-682.667c-42.29 0-69.796 44.505-50.883 82.33l50.883 101.766v214.126c0 169.197 123.107 309.641 284.635 336.646zM426.74 56.889h170.667c0-47.128-38.205-85.333-85.333-85.333s-85.333 38.205-85.333 85.333z" />
<glyph unicode="&#xe91b;" glyph-name="package" d="M625.778 540.445v-199.111c0-15.709-12.735-28.444-28.444-28.444h-170.667c-15.709 0-28.444 12.735-28.444 28.444v199.111h-170.667v-455.111h568.889v455.111h-170.667zM398.222 711.111h-227.556v-56.889h227.556v56.889zM625.778 711.111v-56.889h227.556v56.889h-227.556zM910.222 540.445v-512c0-31.419-25.47-56.889-56.889-56.889h-682.667c-31.419 0-56.889 25.47-56.889 56.889v512c-31.419 0-56.889 25.47-56.889 56.889v170.667c0 31.419 25.47 56.889 56.889 56.889h796.444c31.419 0 56.889-25.47 56.889-56.889v-170.667c0-31.419-25.47-56.889-56.889-56.889z" />
<glyph unicode="&#xe91c;" glyph-name="quwstion_circle_o_l" d="M512 938.667c282.77 0 512-229.23 512-512s-229.23-512-512-512c-282.77 0-512 229.23-512 512s229.23 512 512 512zM512 853.334c-235.641 0-426.667-191.025-426.667-426.667s191.025-426.667 426.667-426.667c235.641 0 426.667 191.025 426.667 426.667s-191.025 426.667-426.667 426.667zM512 170.667c-23.564 0-42.667 19.103-42.667 42.667s19.103 42.667 42.667 42.667c23.564 0 42.667-19.103 42.667-42.667s-19.103-42.667-42.667-42.667zM554.667 341.335c0.001-23.564-19.101-42.667-42.665-42.668s-42.667 19.101-42.668 42.665l-0.001 17.893c0 54.619 34.657 103.22 86.295 121.016 7.113 2.451 12.019 4.799 14.553 6.593 17.616 12.474 27.152 29.281 27.152 46.499 0 33.45-36.66 64-85.333 64s-85.333-30.55-85.333-64c0-23.564-19.103-42.667-42.667-42.667s-42.667 19.103-42.667 42.667c0 84.371 77.955 149.333 170.667 149.333s170.667-64.963 170.667-149.333c0-46.222-23.889-88.324-63.172-116.14-9.898-7.009-21.864-12.735-36.063-17.628-17.213-5.932-28.765-22.133-28.765-40.338l0.001-17.892z" />
<glyph unicode="&#xe91d;" glyph-name="pin" d="M392.505 243.034l-241.359-241.359c-22.216-22.216-58.237-22.216-80.453 0s-22.216 58.237 0 80.453l241.359 241.359-181.019 181.019c-11.108 11.108-11.108 29.118 0 40.227l60.34 60.34c97.306 97.306 247.573 109.374 358.015 36.203l84.476 84.476-40.227 40.227c-22.216 22.216-22.216 58.237 0 80.453s58.237 22.216 80.453 0l241.359-241.359c22.216-22.216 22.216-58.237 0-80.453s-58.237-22.216-80.453 0l-40.227 40.227-84.476-84.476c73.171-110.442 61.103-260.709-36.203-358.015l-60.34-60.34c-11.108-11.108-29.118-11.108-40.227 0l-181.019 181.019zM593.637 444.167l-80.453 80.453c-66.649 66.649-174.71 66.649-241.359 0l321.812-321.812c66.649 66.649 66.649 174.71 0 241.359z" />
<glyph unicode="&#xe91e;" glyph-name="caret_left_s" d="M597.333 188.34v476.654c0 23.564-19.103 42.667-42.667 42.667-11.316 0-22.168-4.495-30.17-12.497l-238.327-238.327c-16.662-16.662-16.662-43.677 0-60.34l238.327-238.327c16.662-16.662 43.677-16.662 60.34 0 8.002 8.002 12.497 18.854 12.497 30.17z" />
<glyph unicode="&#xe91f;" glyph-name="remove" d="M607.080-28.444h-436.414c-31.419 0-56.889 25.47-56.889 56.889v568.889c-31.419 0-56.889 25.47-56.889 56.889s25.47 56.889 56.889 56.889h796.444c31.419 0 56.889-25.47 56.889-56.889s-25.47-56.889-56.889-56.889v-213.776c-33.247 22.255-71.997 36.928-113.778 41.547v172.229h-568.889v-512h299.011c15.922-45.047 44.094-84.307 80.513-113.778zM682.667 412.1c-45.047-15.922-84.307-44.094-113.778-80.513v151.969c0 31.419 25.47 56.889 56.889 56.889s56.889-25.47 56.889-56.889v-71.456zM341.333 824.889c0 31.419 25.47 56.889 56.889 56.889h227.556c31.419 0 56.889-25.47 56.889-56.889s-25.47-56.889-56.889-56.889h-227.556c-31.419 0-56.889 25.47-56.889 56.889zM398.222 540.445c31.419 0 56.889-25.47 56.889-56.889v-284.444c0-31.419-25.47-56.889-56.889-56.889s-56.889 25.47-56.889 56.889v284.444c0 31.419 25.47 56.889 56.889 56.889zM768-28.444c-109.966 0-199.111 89.145-199.111 199.111s89.145 199.111 199.111 199.111c109.966 0 199.111-89.145 199.111-199.111s-89.145-199.111-199.111-199.111zM711.111 142.223h113.778c15.709 0 28.444 12.735 28.444 28.444s-12.735 28.444-28.444 28.444h-113.778c-15.709 0-28.444-12.735-28.444-28.444s12.735-28.444 28.444-28.444z" />
<glyph unicode="&#xe920;" glyph-name="rename" d="M682.667 85.334h85.333c47.128 0 85.333 38.205 85.333 85.333s-38.205 85.333-85.333 85.333h-85.333v-170.667zM625.778-28.444c-31.419 0-56.889 25.47-56.889 56.889v277.916c-0.245 2.142-0.371 4.321-0.371 6.528v227.556c0 31.419 25.47 56.889 56.889 56.889h114.148c94.257 0 170.667-76.41 170.667-170.667 0-34.367-10.158-66.362-27.636-93.145 51.127-36.040 84.525-95.547 84.525-162.855 0-109.966-89.145-199.111-199.111-199.111h-142.222zM739.556 369.778c31.419 0 56.889 25.47 56.889 56.889s-25.47 56.889-56.889 56.889h-57.259v-113.778h57.259zM230.53 199.111h108.811l-53.977 164.244-54.835-164.244zM192.544 85.334l-24.805-74.298c-9.95-29.802-42.175-45.895-71.976-35.946s-45.895 42.175-35.946 71.976l172.012 515.223c17.347 51.96 90.904 51.787 108.006-0.254l169.321-515.223c9.809-29.848-6.436-61.997-36.284-71.806s-61.997 6.436-71.806 36.284l-24.334 74.044h-184.188zM740.157 824.889c0 31.419 25.47 56.889 56.889 56.889s56.889-25.47 56.889-56.889v-120.14c0-51.020-61.976-76.247-97.607-39.729-63.868 65.457-151.045 102.98-244.328 102.98-91.549 0-177.236-36.13-240.828-99.444-35.874-35.717-97.028-10.309-97.028 40.314v116.019c0 31.419 25.47 56.889 56.889 56.889s56.889-25.47 56.889-56.889v-1.998c67.275 38.111 144.064 58.887 224.078 58.887 81.659 0 159.939-21.643 228.157-61.225v4.336z" />
<glyph unicode="&#xe921;" glyph-name="authorization" d="M796.444 286.446v481.554h-568.889v-481.554l284.444-189.63 284.444 189.63zM480.444-18.89l-341.333 227.556c-15.826 10.551-25.333 28.313-25.333 47.334v568.889c0 31.419 25.47 56.889 56.889 56.889h682.667c31.419 0 56.889-25.47 56.889-56.889v-568.889c0-19.021-9.506-36.783-25.333-47.334l-341.333-227.556c-19.109-12.739-44.004-12.739-63.113 0zM638.244 632.872l-187.85-234.812-68.834 68.834c-22.216 22.216-58.237 22.216-80.453 0s-22.216-58.237 0-80.453l113.778-113.778c23.975-23.975 63.468-21.788 84.649 4.688l227.556 284.444c19.627 24.534 15.649 60.334-8.885 79.961s-60.334 15.649-79.961-8.885z" />
<glyph unicode="&#xe922;" glyph-name="search" d="M773.712 244.614c2.11-1.588 4.135-3.342 6.056-5.262l170.786-170.667c22.224-22.209 22.237-58.229 0.028-80.453s-58.229-22.237-80.453-0.028l-170.786 170.667c-1.931 1.93-3.695 3.964-5.29 6.084-66.557-49.996-149.29-79.621-238.942-79.621-219.932 0-398.222 178.29-398.222 398.222s178.29 398.222 398.222 398.222c219.932 0 398.222-178.29 398.222-398.222 0-89.652-29.626-172.384-79.622-238.942zM455.111 199.111c157.094 0 284.444 127.35 284.444 284.444s-127.35 284.444-284.444 284.444c-157.094 0-284.444-127.35-284.444-284.444s127.35-284.444 284.444-284.444z" />
<glyph unicode="&#xe923;" glyph-name="structure" d="M739.556 824.889v28.444c0 15.709 12.735 28.444 28.444 28.444h170.667c15.709 0 28.444-12.735 28.444-28.444v-170.667c0-15.709-12.735-28.444-28.444-28.444h-170.667c-15.709 0-28.444 12.735-28.444 28.444v28.444h-114.157v-227.556h114.157v28.444c0 15.709 12.735 28.444 28.444 28.444h170.667c15.709 0 28.444-12.735 28.444-28.444v-170.667c0-15.709-12.735-28.444-28.444-28.444h-170.667c-15.709 0-28.444 12.735-28.444 28.444v28.444h-114.157v-227.556h114.157v28.444c0 15.709 12.735 28.444 28.444 28.444h170.667c15.709 0 28.444-12.735 28.444-28.444v-170.667c0-15.709-12.735-28.444-28.444-28.444h-170.667c-15.709 0-28.444 12.735-28.444 28.444v28.444h-170.856c-31.314 0-56.699 25.47-56.699 56.889v284.444h-113.778v-170.667c0-31.419-25.47-56.889-56.889-56.889h-227.556c-31.419 0-56.889 25.47-56.889 56.889v455.111c0 31.419 25.47 56.889 56.889 56.889h227.556c31.419 0 56.889-25.47 56.889-56.889v-170.667h113.778v284.444c0 31.419 25.385 56.889 56.699 56.889h170.856zM170.667 597.334v-341.333h113.778v341.333h-113.778z" />
<glyph unicode="&#xe924;" glyph-name="user" d="M512 426.667c-141.385 0-256 114.615-256 256s114.615 256 256 256c141.385 0 256-114.615 256-256s-114.615-256-256-256zM512 540.445c78.547 0 142.222 63.675 142.222 142.222s-63.675 142.222-142.222 142.222c-78.547 0-142.222-63.675-142.222-142.222s63.675-142.222 142.222-142.222zM921.379 311.784c26.591-5.318 45.732-28.666 45.732-55.784v-227.556c0-31.419-25.47-56.889-56.889-56.889h-796.444c-31.419 0-56.889 25.47-56.889 56.889v227.556c0 27.118 19.141 50.466 45.732 55.784l284.444 56.889 11.157 1.105h227.556l11.157-1.105 284.444-56.889zM620.145 256h-216.289l-233.189-46.638v-124.029h682.667v124.029l-233.189 46.638z" />
<glyph unicode="&#xe925;" glyph-name="view" d="M814.077 261.932l136.371-136.371c22.216-22.216 22.216-58.237 0-80.453s-58.237-22.216-80.453 0l-136.371 136.371c-39.465-24.868-86.198-39.256-136.291-39.256-141.385 0-256 114.615-256 256s114.615 256 256 256c141.385 0 256-114.615 256-256 0-50.093-14.388-96.826-39.256-136.291zM227.556 85.334h398.222c31.419 0 56.889-25.47 56.889-56.889s-25.47-56.889-56.889-56.889h-455.111c-31.419 0-56.889 25.47-56.889 56.889v796.444c0 31.419 25.47 56.889 56.889 56.889h682.667c31.419 0 56.889-25.47 56.889-56.889v-113.778c0-31.419-25.47-56.889-56.889-56.889s-56.889 25.47-56.889 56.889v56.889h-568.889v-682.667zM597.333 256c78.547 0 142.222 63.675 142.222 142.222s-63.675 142.222-142.222 142.222c-78.547 0-142.222-63.675-142.222-142.222s63.675-142.222 142.222-142.222z" />
<glyph unicode="&#xe926;" glyph-name="alarm" d="M170.667 85.334v288.754c0 186.329 153.013 337.024 341.333 337.024s341.333-150.695 341.333-337.024v-288.754h56.889c31.419 0 56.889-25.47 56.889-56.889s-25.47-56.889-56.889-56.889h-796.444c-31.419 0-56.889 25.47-56.889 56.889s25.47 56.889 56.889 56.889h56.889zM739.556 374.088c0 123.099-101.687 223.246-227.556 223.246s-227.556-100.147-227.556-223.246v-288.754h455.111v288.754zM625.778 312.889c0-31.419-25.47-56.889-56.889-56.889s-56.889 25.47-56.889 56.889c0 31.419-25.47 56.889-56.889 56.889s-56.889 25.47-56.889 56.889c0 31.419 25.47 56.889 56.889 56.889 94.257 0 170.667-76.41 170.667-170.667zM455.111 881.778c0 31.419 25.47 56.889 56.889 56.889s56.889-25.47 56.889-56.889v-56.889c0-31.419-25.47-56.889-56.889-56.889s-56.889 25.47-56.889 56.889v56.889zM906.411 746.156c27.21 15.709 62.002 6.387 77.712-20.823s6.387-62.002-20.823-77.712l-49.267-28.444c-27.21-15.709-62.002-6.387-77.712 20.823s-6.387 62.002 20.823 77.712l49.267 28.444zM60.7 647.622c-27.21 15.709-36.532 50.502-20.823 77.712s50.502 36.532 77.712 20.823l49.267-28.444c27.21-15.709 36.532-50.502 20.823-77.712s-50.502-36.532-77.712-20.823l-49.267 28.444z" />
<glyph unicode="&#xe927;" glyph-name="ascending" d="M154.004 556.993c-22.216-22.216-58.237-22.216-80.453 0s-22.216 58.237 0 80.453l227.556 227.556c35.838 35.838 97.115 10.456 97.115-40.227v-796.444c0-31.419-25.47-56.889-56.889-56.889s-56.889 25.47-56.889 56.889v659.103l-130.44-130.44zM568.889 824.775h341.333c31.419 0 56.889-25.47 56.889-56.889s-25.47-56.889-56.889-56.889h-341.333c-31.419 0-56.889 25.47-56.889 56.889s25.47 56.889 56.889 56.889zM568.889 597.22h341.333c31.419 0 56.889-25.47 56.889-56.889s-25.47-56.889-56.889-56.889h-341.333c-31.419 0-56.889 25.47-56.889 56.889s25.47 56.889 56.889 56.889zM568.889 369.664h341.333c31.419 0 56.889-25.47 56.889-56.889s-25.47-56.889-56.889-56.889h-341.333c-31.419 0-56.889 25.47-56.889 56.889s25.47 56.889 56.889 56.889zM568.889 142.109h341.333c31.419 0 56.889-25.47 56.889-56.889s-25.47-56.889-56.889-56.889h-341.333c-31.419 0-56.889 25.47-56.889 56.889s25.47 56.889 56.889 56.889z" />
<glyph unicode="&#xe928;" glyph-name="descending" d="M869.996 296.227c22.216 22.216 58.237 22.216 80.453 0s22.216-58.237 0-80.453l-227.556-227.556c-35.838-35.838-97.115-10.456-97.115 40.227v796.444c0 31.419 25.47 56.889 56.889 56.889s56.889-25.47 56.889-56.889v-659.103l130.44 130.44zM455.111 28.445h-341.333c-31.419 0-56.889 25.47-56.889 56.889s25.47 56.889 56.889 56.889h341.333c31.419 0 56.889-25.47 56.889-56.889s-25.47-56.889-56.889-56.889zM455.111 256h-341.333c-31.419 0-56.889 25.47-56.889 56.889s25.47 56.889 56.889 56.889h341.333c31.419 0 56.889-25.47 56.889-56.889s-25.47-56.889-56.889-56.889zM455.111 483.556h-341.333c-31.419 0-56.889 25.47-56.889 56.889s25.47 56.889 56.889 56.889h341.333c31.419 0 56.889-25.47 56.889-56.889s-25.47-56.889-56.889-56.889zM455.111 711.111h-341.333c-31.419 0-56.889 25.47-56.889 56.889s25.47 56.889 56.889 56.889h341.333c31.419 0 56.889-25.47 56.889-56.889s-25.47-56.889-56.889-56.889z" />
<glyph unicode="&#xe929;" glyph-name="exclamation_circle_o_l" d="M512-85.333c-282.77 0-512 229.23-512 512s229.23 512 512 512c282.77 0 512-229.23 512-512s-229.23-512-512-512zM512-0c235.641 0 426.667 191.025 426.667 426.667s-191.025 426.667-426.667 426.667c-235.641 0-426.667-191.025-426.667-426.667s191.025-426.667 426.667-426.667zM512 640c23.564 0 42.667-19.103 42.667-42.667s-19.103-42.667-42.667-42.667c-23.564 0-42.667 19.103-42.667 42.667s19.103 42.667 42.667 42.667zM512 469.334c23.564 0 42.667-19.103 42.667-42.667v-170.667c0-23.564-19.103-42.667-42.667-42.667s-42.667 19.103-42.667 42.667v170.667c0 23.564 19.103 42.667 42.667 42.667z" />
<glyph unicode="&#xe92a;" glyph-name="wrong_circle_o_l" d="M512 366.327l-90.51-90.51c-16.662-16.662-43.677-16.662-60.34 0s-16.662 43.677 0 60.34l90.51 90.51-90.51 90.51c-16.662 16.662-16.662 43.677 0 60.34s43.677 16.662 60.34 0l90.51-90.51 90.51 90.51c16.662 16.662 43.677 16.662 60.34 0s16.662-43.677 0-60.34l-90.51-90.51 90.51-90.51c16.662-16.662 16.662-43.677 0-60.34s-43.677-16.662-60.34 0l-90.51 90.51zM512 938.667c282.77 0 512-229.23 512-512s-229.23-512-512-512c-282.77 0-512 229.23-512 512s229.23 512 512 512zM512 853.334c-235.641 0-426.667-191.025-426.667-426.667s191.025-426.667 426.667-426.667c235.641 0 426.667 191.025 426.667 426.667s-191.025 426.667-426.667 426.667z" />
<glyph unicode="&#xe92b;" glyph-name="plus_square_s" d="M170.667 768v-682.667h682.667v682.667h-682.667zM426.667 512h-85.333c-47.128 0-85.333-38.205-85.333-85.333s38.205-85.333 85.333-85.333h85.333v-85.333c0-47.128 38.205-85.333 85.333-85.333s85.333 38.205 85.333 85.333v85.333h85.333c47.128 0 85.333 38.205 85.333 85.333s-38.205 85.333-85.333 85.333h-85.333v85.333c0 47.128-38.205 85.333-85.333 85.333s-85.333-38.205-85.333-85.333v-85.333zM85.333 938.667h853.333c47.128 0 85.333-38.205 85.333-85.333v-853.333c0-47.128-38.205-85.333-85.333-85.333h-853.333c-47.128 0-85.333 38.205-85.333 85.333v853.333c0 47.128 38.205 85.333 85.333 85.333z" />
<glyph unicode="&#xe92c;" glyph-name="minus_square_s" d="M170.667 768v-682.667h682.667v682.667h-682.667zM85.333 938.667h853.333c47.128 0 85.333-38.205 85.333-85.333v-853.333c0-47.128-38.205-85.333-85.333-85.333h-853.333c-47.128 0-85.333 38.205-85.333 85.333v853.333c0 47.128 38.205 85.333 85.333 85.333zM341.333 512c-47.128 0-85.333-38.205-85.333-85.333s38.205-85.333 85.333-85.333h341.333c47.128 0 85.333 38.205 85.333 85.333s-38.205 85.333-85.333 85.333h-341.333z" />
<glyph unicode="&#xe92d;" glyph-name="menu" d="M170.667 654.223c-31.419 0-56.889 25.47-56.889 56.889s25.47 56.889 56.889 56.889h682.667c31.419 0 56.889-25.47 56.889-56.889s-25.47-56.889-56.889-56.889h-682.667zM170.667 369.778c-31.419 0-56.889 25.47-56.889 56.889s25.47 56.889 56.889 56.889h682.667c31.419 0 56.889-25.47 56.889-56.889s-25.47-56.889-56.889-56.889h-682.667zM170.667 85.334c-31.419 0-56.889 25.47-56.889 56.889s25.47 56.889 56.889 56.889h682.667c31.419 0 56.889-25.47 56.889-56.889s-25.47-56.889-56.889-56.889h-682.667z" />
<glyph unicode="&#xe92e;" glyph-name="refresh" d="M257.511 199.111h26.934c31.419 0 56.889 25.47 56.889 56.889s-25.47 56.889-56.889 56.889h-170.667c-31.419 0-56.889-25.47-56.889-56.889v-170.667c0-31.419 25.47-56.889 56.889-56.889s56.889 25.47 56.889 56.889v40.221c84.652-95.932 207.776-153.999 341.333-153.999 227.044 0 418.465 167.231 450.462 389.867 4.47 31.099-17.118 59.934-48.217 64.403s-59.934-17.118-64.403-48.217c-23.975-166.818-167.579-292.275-337.841-292.275-99.385 0-191.042 42.843-254.489 113.778zM766.492 654.223h-26.936c-31.419 0-56.889-25.47-56.889-56.889s25.47-56.889 56.889-56.889h120.116c8.373-1.96 17.229-2.040 25.903 0h24.648c31.419 0 56.889 25.47 56.889 56.889v170.667c0 31.419-25.47 56.889-56.889 56.889s-56.889-25.47-56.889-56.889v-40.218c-84.613 95.88-207.723 153.996-341.333 153.996-227.256 0-418.796-167.538-450.544-390.436-4.43-31.105 17.194-59.912 48.299-64.342s59.912 17.194 64.342 48.299c23.788 167.015 167.481 292.701 337.903 292.701 99.424 0 191.073-42.882 254.492-113.778z" />
<glyph unicode="&#xe92f;" glyph-name="position" d="M512 369.778c-62.838 0-113.778 50.94-113.778 113.778s50.94 113.778 113.778 113.778c62.838 0 113.778-50.94 113.778-113.778s-50.94-113.778-113.778-113.778zM470.065-67.918c-170.489 186.641-269.484 297.598-296.985 332.872-56.541 72.521-87.746 161.311-87.746 254.62 0 231.774 191.333 419.093 426.667 419.093s426.667-187.319 426.667-419.093c0-90.951-29.644-177.641-83.586-249.194-27.66-36.69-128.015-149.476-301.067-338.36-21.224-23.167-57.21-24.741-80.377-3.516-1.243 1.139-2.435 2.333-3.573 3.578zM764.37 339.775c39.142 51.921 60.519 114.438 60.519 180.248 0 168.039-139.759 304.866-312.889 304.866s-312.889-136.827-312.889-304.866c0-67.517 22.507-131.559 63.552-184.205 27.015-34.649 110.203-127.626 249.565-278.929 141.357 153.124 225.404 247.419 252.141 282.886z" />
<glyph unicode="&#xe930;" glyph-name="home" d="M170.667 28.445c0-31.419-25.47-56.889-56.889-56.889s-56.889 25.47-56.889 56.889v512c0 16.607 7.257 32.385 19.866 43.193l398.222 341.333c21.304 18.261 52.741 18.261 74.046 0l398.222-341.333c12.609-10.808 19.866-26.586 19.866-43.193v-512c0-31.419-25.47-56.889-56.889-56.889h-568.889c-31.419 0-56.889 25.47-56.889 56.889s25.47 56.889 56.889 56.889h512v428.946l-341.333 292.571-341.333-292.571v-485.835zM369.778 312.889c-31.419 0-56.889 25.47-56.889 56.889s25.47 56.889 56.889 56.889h284.444c31.419 0 56.889-25.47 56.889-56.889s-25.47-56.889-56.889-56.889h-284.444z" />
<glyph unicode="&#xe931;" glyph-name="setting" d="M834.074 68.628c-30.542-59.593-91.986-97.086-159.081-97.072h-323.047c-66.55 0.009-127.576 36.923-158.351 95.783l-144.874 276.876c-27.034 51.661-27.034 113.244 0 164.904l144.874 276.932c30.79 58.839 91.814 95.729 158.351 95.727h323.047c67.103 0 128.534-37.529 159.081-97.072l141.898-276.932c26.111-50.972 26.111-111.299 0-162.216l-141.898-276.932zM864.239 469.618l-124.493 240.504c-16.268 31.427-48.998 51.198-84.736 51.186h-283.422c-35.471 0-67.986-19.462-84.342-50.504l-127.104-240.504c-14.413-27.252-14.413-59.744 0-86.996l127.104-240.504c16.392-31.038 48.897-50.502 84.342-50.504h283.422c35.766 0 68.478 19.754 84.736 51.186l124.493 240.553c13.903 26.859 13.903 58.678 0 85.536v0.049zM512 284.445c-50.811 0-97.763 27.107-123.168 71.111s-25.406 98.219 0 142.222c25.406 44.004 72.357 71.111 123.168 71.111 78.547 0 142.222-63.675 142.222-142.222s-63.675-142.222-142.222-142.222z" />
<glyph unicode="&#xe932;" glyph-name="reset" d="M218.632 713.133l3.451 3.451c166.624 166.624 436.774 166.624 603.398 0s166.624-436.774 0-603.398c-166.624-166.624-436.774-166.624-603.398 0-57.809 57.809-96.98 129.633-114.544 207.746-6.893 30.654 12.369 61.091 43.023 67.983s61.091-12.369 67.983-43.023c12.873-57.249 41.527-109.79 83.991-152.253 122.191-122.191 320.301-122.191 442.492 0s122.191 320.301 0 442.492c-122.191 122.191-320.301 122.191-442.492 0l-3.451-3.451h23.564c31.419 0 56.889-25.47 56.889-56.889s-25.47-56.889-56.889-56.889h-160.906c-31.419 0-56.889 25.47-56.889 56.889v160.906c0 31.419 25.47 56.889 56.889 56.889s56.889-25.47 56.889-56.889v-23.564z" />
<glyph unicode="&#xe933;" glyph-name="key" d="M278.135 115.208l-137.934-137.934c-22.216-22.216-58.237-22.216-80.453 0s-22.216 58.237 0 80.453l335.507 335.507c-34.033 50.078-53.922 110.544-53.922 175.655 0 172.804 140.085 312.889 312.889 312.889s312.889-140.085 312.889-312.889c0-172.804-140.085-312.889-312.889-312.889-66.585 0-128.313 20.799-179.040 56.255l-116.594-116.594 77.002-77.002c22.216-22.216 22.216-58.237 0-80.453s-58.237-22.216-80.453 0l-77.002 77.002zM654.222 369.778c109.966 0 199.111 89.145 199.111 199.111s-89.145 199.111-199.111 199.111c-109.966 0-199.111-89.145-199.111-199.111s89.145-199.111 199.111-199.111z" />
<glyph unicode="&#xe934;" glyph-name="back_s" d="M301.974 768h380.692c188.513 0 341.333-152.82 341.333-341.333s-152.82-341.333-341.333-341.333h-426.667c-47.128 0-85.333 38.205-85.333 85.333s38.205 85.333 85.333 85.333h426.667c94.257 0 170.667 76.41 170.667 170.667s-76.41 170.667-170.667 170.667h-380.692l14.938-33.61c38.419-86.443-71.429-161.887-138.318-94.997l-153.6 153.6c-33.325 33.325-33.325 87.355 0 120.68l153.6 153.6c66.89 66.89 176.738-8.554 138.318-94.997l-14.938-33.61z" />
<glyph unicode="&#xe935;" glyph-name="info_circle_o_l" d="M512 938.667c282.77 0 512-229.23 512-512s-229.23-512-512-512c-282.77 0-512 229.23-512 512s229.23 512 512 512zM512 853.334c-235.641 0-426.667-191.025-426.667-426.667s191.025-426.667 426.667-426.667c235.641 0 426.667 191.025 426.667 426.667s-191.025 426.667-426.667 426.667zM512 213.334c-23.564 0-42.667 19.103-42.667 42.667s19.103 42.667 42.667 42.667c23.564 0 42.667-19.103 42.667-42.667s-19.103-42.667-42.667-42.667zM512 384c-23.564 0-42.667 19.103-42.667 42.667v170.667c0 23.564 19.103 42.667 42.667 42.667s42.667-19.103 42.667-42.667v-170.667c0-23.564-19.103-42.667-42.667-42.667z" />
<glyph unicode="&#xe936;" glyph-name="right_circle_o_l" d="M512-0c235.641 0 426.667 191.025 426.667 426.667s-191.025 426.667-426.667 426.667c-235.641 0-426.667-191.025-426.667-426.667s191.025-426.667 426.667-426.667zM512-85.333c-282.77 0-512 229.23-512 512s229.23 512 512 512c282.77 0 512-229.23 512-512s-229.23-512-512-512zM693.189 582.724l-206.259-236.304-116.289 109.917c-17.125 16.187-44.129 15.426-60.316-1.699s-15.426-44.129 1.699-60.316l148.55-140.41c17.607-16.642 45.521-15.302 61.453 2.95l235.45 269.748c15.496 17.753 13.666 44.706-4.087 60.201s-44.706 13.666-60.201-4.087z" />
<glyph unicode="&#xe937;" glyph-name="caret_right_s" d="M426.667 664.994v-476.654c0-23.564 19.103-42.667 42.667-42.667 11.316 0 22.168 4.495 30.17 12.497l238.327 238.327c16.662 16.662 16.662 43.677 0 60.34l-238.327 238.327c-16.662 16.662-43.677 16.662-60.34 0-8.002-8.002-12.497-18.854-12.497-30.17z" />
<glyph unicode="&#xe938;" glyph-name="caret_up_s" d="M273.673 256h476.654c23.564 0 42.667 19.103 42.667 42.667 0 11.316-4.495 22.168-12.497 30.17l-238.327 238.327c-16.662 16.662-43.677 16.662-60.34 0l-238.327-238.327c-16.662-16.662-16.662-43.677 0-60.34 8.002-8.002 18.854-12.497 30.17-12.497z" />
<glyph unicode="&#xe939;" glyph-name="configure_s" d="M597.333 85.334h-426.667c-47.128 0-85.333 38.205-85.333 85.333s38.205 85.333 85.333 85.333h426.667v42.667c0 23.564 19.103 42.667 42.667 42.667h256c23.564 0 42.667-19.103 42.667-42.667v-256c0-23.564-19.103-42.667-42.667-42.667h-256c-23.564 0-42.667 19.103-42.667 42.667v42.667zM426.667 768h426.667c47.128 0 85.333-38.205 85.333-85.333s-38.205-85.333-85.333-85.333h-426.667v-42.667c0-23.564-19.103-42.667-42.667-42.667h-256c-23.564 0-42.667 19.103-42.667 42.667v256c0 23.564 19.103 42.667 42.667 42.667h256c23.564 0 42.667-19.103 42.667-42.667v-42.667z" />
<glyph unicode="&#xe93a;" glyph-name="filter_s" d="M408.13 607.771c29.441-36.801 23.474-90.501-13.327-119.941s-90.501-23.474-119.941 13.327l-170.83 213.537c-44.699 55.873-4.918 138.641 66.634 138.641h682.667c71.553 0 111.333-82.768 66.634-138.641l-322.634-403.293v-226.067c0-47.128-38.205-85.333-85.333-85.333s-85.333 38.205-85.333 85.333v256c0 19.377 6.595 38.177 18.699 53.307l230.421 288.026h-327.573l59.917-74.896z" />
<glyph unicode="&#xe93b;" glyph-name="minus_s" d="M170.667 341.334c-47.128 0-85.333 38.205-85.333 85.333s38.205 85.333 85.333 85.333h682.667c47.128 0 85.333-38.205 85.333-85.333s-38.205-85.333-85.333-85.333h-682.667z" />
<glyph unicode="&#xe93c;" glyph-name="plus_s" d="M426.667 512v256c0 47.128 38.205 85.333 85.333 85.333s85.333-38.205 85.333-85.333v-256h256c47.128 0 85.333-38.205 85.333-85.333s-38.205-85.333-85.333-85.333h-256v-256c0-47.128-38.205-85.333-85.333-85.333s-85.333 38.205-85.333 85.333v256h-256c-47.128 0-85.333 38.205-85.333 85.333s38.205 85.333 85.333 85.333h256z" />
<glyph unicode="&#xe93d;" glyph-name="time_circle_s" d="M512 426.667v256c0 47.128-38.205 85.333-85.333 85.333s-85.333-38.205-85.333-85.333v-341.333c0-47.128 38.205-85.333 85.333-85.333h256c47.128 0 85.333 38.205 85.333 85.333s-38.205 85.333-85.333 85.333h-170.667zM512-85.333c-282.77 0-512 229.23-512 512s229.23 512 512 512c282.77 0 512-229.23 512-512s-229.23-512-512-512z" />
<glyph unicode="&#xe93e;" glyph-name="up" d="M210.893 215.774c-22.216-22.216-58.237-22.216-80.453 0s-22.216 58.237 0 80.453l341.333 341.333c22.216 22.216 58.237 22.216 80.453 0l341.333-341.333c22.216-22.216 22.216-58.237 0-80.453s-58.237-22.216-80.453 0l-301.107 301.107-301.107-301.107z" />
<glyph unicode="&#xe93f;" glyph-name="down" d="M813.107 637.56c22.216 22.216 58.237 22.216 80.453 0s22.216-58.237 0-80.453l-341.333-341.333c-22.216-22.216-58.237-22.216-80.453 0l-341.333 341.333c-22.216 22.216-22.216 58.237 0 80.453s58.237 22.216 80.453 0l301.107-301.107 301.107 301.107z" />
<glyph unicode="&#xe940;" glyph-name="right" d="M301.107 727.774c-22.216 22.216-22.216 58.237 0 80.453s58.237 22.216 80.453 0l341.333-341.333c22.216-22.216 22.216-58.237 0-80.453l-341.333-341.333c-22.216-22.216-58.237-22.216-80.453 0s-22.216 58.237 0 80.453l301.107 301.107-301.107 301.107z" />
<glyph unicode="&#xe941;" glyph-name="left" d="M722.893 125.56c22.216-22.216 22.216-58.237 0-80.453s-58.237-22.216-80.453 0l-341.333 341.333c-22.216 22.216-22.216 58.237 0 80.453l341.333 341.333c22.216 22.216 58.237 22.216 80.453 0s22.216-58.237 0-80.453l-301.107-301.107 301.107-301.107z" />
<glyph unicode="&#xe942;" glyph-name="plus_circle_so" d="M455.111 483.556h-113.778c-31.419 0-56.889-25.47-56.889-56.889s25.47-56.889 56.889-56.889h113.778v-113.778c0-31.419 25.47-56.889 56.889-56.889s56.889 25.47 56.889 56.889v113.778h113.778c31.419 0 56.889 25.47 56.889 56.889s-25.47 56.889-56.889 56.889h-113.778v113.778c0 31.419-25.47 56.889-56.889 56.889s-56.889-25.47-56.889-56.889v-113.778zM512-28.444c-251.351 0-455.111 203.76-455.111 455.111s203.76 455.111 455.111 455.111c251.351 0 455.111-203.76 455.111-455.111s-203.76-455.111-455.111-455.111z" />
<glyph unicode="&#xe943;" glyph-name="minus_circle_so" d="M512-28.444c-251.351 0-455.111 203.76-455.111 455.111s203.76 455.111 455.111 455.111c251.351 0 455.111-203.76 455.111-455.111s-203.76-455.111-455.111-455.111zM341.333 369.778h341.333c31.419 0 56.889 25.47 56.889 56.889s-25.47 56.889-56.889 56.889h-341.333c-31.419 0-56.889-25.47-56.889-56.889s25.47-56.889 56.889-56.889z" />
<glyph unicode="&#xe944;" glyph-name="wrong_circle_so" d="M512 507.12l-80.453 80.453c-22.216 22.216-58.237 22.216-80.453 0s-22.216-58.237 0-80.453l80.453-80.453-80.453-80.453c-22.216-22.216-22.216-58.237 0-80.453s58.237-22.216 80.453 0l80.453 80.453 80.453-80.453c22.216-22.216 58.237-22.216 80.453 0s22.216 58.237 0 80.453l-80.453 80.453 80.453 80.453c22.216 22.216 22.216 58.237 0 80.453s-58.237 22.216-80.453 0l-80.453-80.453zM512-28.444c-251.351 0-455.111 203.76-455.111 455.111s203.76 455.111 455.111 455.111c251.351 0 455.111-203.76 455.111-455.111s-203.76-455.111-455.111-455.111z" />
<glyph unicode="&#xe945;" glyph-name="right_circle_so" d="M512-28.444c-251.351 0-455.111 203.76-455.111 455.111s203.76 455.111 455.111 455.111c251.351 0 455.111-203.76 455.111-455.111s-203.76-455.111-455.111-455.111zM642.44 580.671l-187.329-187.329-73.551 73.551c-22.216 22.216-58.237 22.216-80.453 0s-22.216-58.237 0-80.453l113.778-113.778c22.216-22.216 58.237-22.216 80.453 0l227.556 227.556c22.216 22.216 22.216 58.237 0 80.453s-58.237 22.216-80.453 0z" />
<glyph unicode="&#xe946;" glyph-name="exclamation_circle_so" d="M512-28.444c-251.351 0-455.111 203.76-455.111 455.111s203.76 455.111 455.111 455.111c251.351 0 455.111-203.76 455.111-455.111s-203.76-455.111-455.111-455.111zM455.111 597.334v-170.667c0-31.419 25.47-56.889 56.889-56.889s56.889 25.47 56.889 56.889v170.667c0 31.419-25.47 56.889-56.889 56.889s-56.889-25.47-56.889-56.889zM512 199.111c31.419 0 56.889 25.47 56.889 56.889s-25.47 56.889-56.889 56.889c-31.419 0-56.889-25.47-56.889-56.889s25.47-56.889 56.889-56.889z" />
<glyph unicode="&#xe947;" glyph-name="info_circle_so" d="M512-28.444c-251.351 0-455.111 203.76-455.111 455.111s203.76 455.111 455.111 455.111c251.351 0 455.111-203.76 455.111-455.111s-203.76-455.111-455.111-455.111zM455.111 426.667v-170.667c0-31.419 25.47-56.889 56.889-56.889s56.889 25.47 56.889 56.889v170.667c0 31.419-25.47 56.889-56.889 56.889s-56.889-25.47-56.889-56.889zM512 540.445c31.419 0 56.889 25.47 56.889 56.889s-25.47 56.889-56.889 56.889c-31.419 0-56.889-25.47-56.889-56.889s25.47-56.889 56.889-56.889z" />
<glyph unicode="&#xe948;" glyph-name="quwstion_circle_so" d="M512-28.444c251.351 0 455.111 203.76 455.111 455.111s-203.76 455.111-455.111 455.111c-251.351 0-455.111-203.76-455.111-455.111s203.76-455.111 455.111-455.111zM512 142.223c-31.419 0-56.889 25.47-56.889 56.889s25.47 56.889 56.889 56.889c31.419 0 56.889-25.47 56.889-56.889s-25.47-56.889-56.889-56.889zM568.889 398.223c0-16.118-6.703-59.115-17.473-69.466-10.225-9.827-24.115-15.867-39.416-15.867-28.51 0-52.122 20.972-56.249 48.331-0.421 2.791-0.639 34.094-0.639 37.003 0 54.351 34.597 102.673 86.046 120.184 1.137 0.387 1.8 0.659 1.937 0.728 16.608 8.367 25.795 21.973 25.795 35.532 0 21.749-23.906 42.667-56.889 42.667s-56.889-20.918-56.889-42.667c0-31.419-25.47-56.889-56.889-56.889s-56.889 25.47-56.889 56.889c0 88.217 77.974 156.444 170.667 156.444s170.667-68.227 170.667-156.444c0-58.493-34.919-110.208-88.38-137.142-5.126-2.583-10.595-4.828-16.465-6.826-5.341-1.818-8.932-6.834-8.932-12.476z" />
<glyph unicode="&#xe949;" glyph-name="quwstion_circle" d="M512 170.667c-31.419 0-56.889 25.47-56.889 56.889s25.47 56.889 56.889 56.889c31.419 0 56.889-25.47 56.889-56.889s-25.47-56.889-56.889-56.889zM512-28.444c-251.351 0-455.111 203.76-455.111 455.111s203.76 455.111 455.111 455.111c251.351 0 455.111-203.76 455.111-455.111s-203.76-455.111-455.111-455.111zM512 85.334c188.513 0 341.333 152.82 341.333 341.333s-152.82 341.333-341.333 341.333c-188.513 0-341.333-152.82-341.333-341.333s152.82-341.333 341.333-341.333zM568.889 369.778c0-31.419-25.47-56.889-56.889-56.889s-56.889 25.47-56.889 56.889c0 54.351 34.597 102.673 86.046 120.184 1.137 0.387 1.8 0.659 1.937 0.728 16.608 8.367 25.795 21.973 25.795 35.532 0 21.749-23.906 42.667-56.889 42.667s-56.889-20.918-56.889-42.667c0-31.419-25.47-56.889-56.889-56.889s-56.889 25.47-56.889 56.889c0 88.217 77.974 156.444 170.667 156.444s170.667-68.227 170.667-156.444c0-58.493-34.919-110.208-88.38-137.142-5.126-2.583-10.595-4.828-16.465-6.826-5.341-1.818-8.932-6.834-8.932-12.476z" />
<glyph unicode="&#xe94a;" glyph-name="menu_fold" d="M170.667 711.111c-31.419 0-56.889 25.47-56.889 56.889s25.47 56.889 56.889 56.889h682.667c31.419 0 56.889-25.47 56.889-56.889s-25.47-56.889-56.889-56.889h-682.667zM170.667 483.556c-31.419 0-56.889 25.47-56.889 56.889s25.47 56.889 56.889 56.889h284.444c31.419 0 56.889-25.47 56.889-56.889s-25.47-56.889-56.889-56.889h-284.444zM170.667 256c-31.419 0-56.889 25.47-56.889 56.889s25.47 56.889 56.889 56.889h284.444c31.419 0 56.889-25.47 56.889-56.889s-25.47-56.889-56.889-56.889h-284.444zM170.667 28.445c-31.419 0-56.889 25.47-56.889 56.889s25.47 56.889 56.889 56.889h682.667c31.419 0 56.889-25.47 56.889-56.889s-25.47-56.889-56.889-56.889h-682.667zM836.671 296.227c22.216-22.216 22.216-58.237 0-80.453s-58.237-22.216-80.453 0l-170.667 170.667c-22.216 22.216-22.216 58.237 0 80.453l170.667 170.667c22.216 22.216 58.237 22.216 80.453 0s22.216-58.237 0-80.453l-130.44-130.44 130.44-130.44z" />
<glyph unicode="&#xe94b;" glyph-name="menu_unfold" d="M170.667 711.111c-31.419 0-56.889 25.47-56.889 56.889s25.47 56.889 56.889 56.889h682.667c31.419 0 56.889-25.47 56.889-56.889s-25.47-56.889-56.889-56.889h-682.667zM170.667 483.556c-31.419 0-56.889 25.47-56.889 56.889s25.47 56.889 56.889 56.889h284.444c31.419 0 56.889-25.47 56.889-56.889s-25.47-56.889-56.889-56.889h-284.444zM170.667 256c-31.419 0-56.889 25.47-56.889 56.889s25.47 56.889 56.889 56.889h284.444c31.419 0 56.889-25.47 56.889-56.889s-25.47-56.889-56.889-56.889h-284.444zM170.667 28.445c-31.419 0-56.889 25.47-56.889 56.889s25.47 56.889 56.889 56.889h682.667c31.419 0 56.889-25.47 56.889-56.889s-25.47-56.889-56.889-56.889h-682.667zM585.551 557.107c-22.216 22.216-22.216 58.237 0 80.453s58.237 22.216 80.453 0l170.667-170.667c22.216-22.216 22.216-58.237 0-80.453l-170.667-170.667c-22.216-22.216-58.237-22.216-80.453 0s-22.216 58.237 0 80.453l130.44 130.44-130.44 130.44z" />
<glyph unicode="&#xe94c;" glyph-name="upload" d="M568.889 687.547v-431.547c0-31.419-25.47-56.889-56.889-56.889s-56.889 25.47-56.889 56.889v431.547l-187.329-187.329c-22.216-22.216-58.237-22.216-80.453 0s-22.216 58.237 0 80.453l284.444 284.444c22.216 22.216 58.237 22.216 80.453 0l284.444-284.444c22.216-22.216 22.216-58.237 0-80.453s-58.237-22.216-80.453 0l-187.329 187.329zM910.222 142.223c31.419 0 56.889-25.47 56.889-56.889s-25.47-56.889-56.889-56.889h-796.444c-31.419 0-56.889 25.47-56.889 56.889s25.47 56.889 56.889 56.889h796.444z" />
<glyph unicode="&#xe94d;" glyph-name="download" d="M568.889 393.342l187.329 187.329c22.216 22.216 58.237 22.216 80.453 0s22.216-58.237 0-80.453l-284.444-284.444c-22.216-22.216-58.237-22.216-80.453 0l-284.444 284.444c-22.216 22.216-22.216 58.237 0 80.453s58.237 22.216 80.453 0l187.329-187.329v431.547c0 31.419 25.47 56.889 56.889 56.889s56.889-25.47 56.889-56.889v-431.547zM910.222 142.223c31.419 0 56.889-25.47 56.889-56.889s-25.47-56.889-56.889-56.889h-796.444c-31.419 0-56.889 25.47-56.889 56.889s25.47 56.889 56.889 56.889h796.444z" />
<glyph unicode="&#xe94e;" glyph-name="swap" d="M734.969 597.334l-153.614 192.017c-19.627 24.534-15.649 60.334 8.885 79.961s60.334 15.649 79.961-8.885l227.556-284.444c29.799-37.249 3.279-92.427-44.423-92.427h-682.667c-31.419 0-56.889 25.47-56.889 56.889s25.47 56.889 56.889 56.889h564.302zM289.138 256.002l153.614-192.017c19.627-24.534 15.649-60.334-8.885-79.961s-60.334-15.649-79.961 8.885l-227.556 284.444c-29.799 37.249-3.279 92.427 44.423 92.427h682.667c31.419 0 56.889-25.47 56.889-56.889s-25.47-56.889-56.889-56.889h-564.302z" />
<glyph unicode="&#xe94f;" glyph-name="lock" d="M170.667 426.667v-341.333h682.667v341.333h-682.667zM483.556 203.967v-33.3c0-15.709 12.735-28.444 28.444-28.444s28.444 12.735 28.444 28.444v33.3c33.143 11.714 56.889 43.323 56.889 80.478 0 47.128-38.205 85.333-85.333 85.333s-85.333-38.205-85.333-85.333c0-37.155 23.746-68.763 56.889-80.478zM227.556 540.445v113.778c0 148.401 131.045 284.444 284.444 284.444s284.444-136.044 284.444-284.444v-113.778h113.778c31.419 0 56.889-25.47 56.889-56.889v-455.111c0-31.419-25.47-56.889-56.889-56.889h-796.444c-31.419 0-56.889 25.47-56.889 56.889v455.111c0 31.419 25.47 56.889 56.889 56.889h113.778zM341.333 540.445h341.333v113.778c0 86.496-81.077 170.667-170.667 170.667s-170.667-84.17-170.667-170.667v-113.778z" />
<glyph unicode="&#xe950;" glyph-name="visible" d="M20.597 373.007c-17.928 33.522-17.93 73.784-0.003 107.315 121.34 226.882 286.446 344.567 491.406 344.567 204.958 0 370.064-117.683 491.403-344.562 17.928-33.522 17.93-73.784 0.003-107.315-121.34-226.882-286.446-344.567-491.406-344.567-204.958 0-370.064 117.683-491.403 344.562zM903.072 426.663c-102.929 192.463-231.981 284.449-391.072 284.449s-288.145-91.987-391.072-284.44c102.929-192.463 231.981-284.449 391.072-284.449s288.145 91.987 391.072 284.44zM512 256c-94.257 0-170.667 76.41-170.667 170.667s76.41 170.667 170.667 170.667c94.257 0 170.667-76.41 170.667-170.667s-76.41-170.667-170.667-170.667zM512 369.778c31.419 0 56.889 25.47 56.889 56.889s-25.47 56.889-56.889 56.889c-31.419 0-56.889-25.47-56.889-56.889s25.47-56.889 56.889-56.889z" />
<glyph unicode="&#xe951;" glyph-name="invisible" d="M324.055 788.626c58.377 24.081 121.069 36.263 187.945 36.263 207.861 0 375.305-117.683 498.362-344.561 18.182-33.522 18.184-73.783 0.003-107.315-43.338-79.903-92.182-146.262-146.358-198.707l-75.665 86.087c43.489 43.219 83.52 98.52 120.268 166.271-104.386 192.463-235.267 284.448-396.61 284.448-37.211 0-72.802-4.893-106.821-14.783l-81.124 92.297zM493.076 596.325c6.215 0.666 12.529 1.008 18.924 1.008 95.591 0 173.084-76.41 173.084-170.666 0-14.712-1.888-28.989-5.438-42.609l-186.57 212.267zM159.993 679.029l75.665-86.087c-43.489-43.219-83.52-98.52-120.268-166.271 104.386-192.463 235.267-284.448 396.61-284.448 37.211 0 72.802 4.893 106.821 14.783l81.124-92.297c-58.377-24.081-121.069-36.263-187.946-36.263-207.861 0-375.305 117.683-498.362 344.561-18.182 33.522-18.184 73.783-0.003 107.315 43.338 79.903 92.182 146.262 146.358 198.707zM344.354 469.276l186.57-212.267c-6.215-0.666-12.529-1.008-18.924-1.008-95.591 0-173.084 76.41-173.084 170.666 0 14.712 1.888 28.989 5.438 42.609zM122.028 787.866c-20.737 23.855-17.935 59.769 6.258 80.216s60.615 17.684 81.352-6.17l692.335-796.443c20.737-23.855 17.935-59.769-6.258-80.216s-60.615-17.684-81.352 6.17l-692.335 796.443z" />
<glyph unicode="&#xe952;" glyph-name="ellipsis" d="M853.333 341.334c-47.128 0-85.333 38.205-85.333 85.333s38.205 85.333 85.333 85.333c47.128 0 85.333-38.205 85.333-85.333s-38.205-85.333-85.333-85.333zM512 341.334c-47.128 0-85.333 38.205-85.333 85.333s38.205 85.333 85.333 85.333c47.128 0 85.333-38.205 85.333-85.333s-38.205-85.333-85.333-85.333zM170.667 341.334c-47.128 0-85.333 38.205-85.333 85.333s38.205 85.333 85.333 85.333c47.128 0 85.333-38.205 85.333-85.333s-38.205-85.333-85.333-85.333z" />
<glyph unicode="&#xe953;" glyph-name="service" d="M796.444 483.556c0 157.094-127.35 284.444-284.444 284.444s-284.444-127.35-284.444-284.444h113.778c15.709 0 28.444-12.735 28.444-28.444v-227.556c0-15.709-12.735-28.444-28.444-28.444h-113.778c-62.838 0-113.778 50.94-113.778 113.778v170.667c0 219.932 178.29 398.222 398.222 398.222s398.222-178.29 398.222-398.222v-341.333c0-94.257-76.41-170.667-170.667-170.667h-227.556c-31.419 0-56.889 25.47-56.889 56.889s25.47 56.889 56.889 56.889h227.556c31.419 0 56.889 25.47 56.889 56.889v56.889h-113.778c-15.709 0-28.444 12.735-28.444 28.444v227.556c0 15.709 12.735 28.444 28.444 28.444h113.778z" />
<glyph unicode="&#xe954;" glyph-name="network" d="M994.718 628.984c22.216-22.216 22.216-58.237 0-80.453s-58.237-22.216-80.453 0c-222.165 222.165-582.365 222.165-804.53 0-22.216-22.216-58.237-22.216-80.453 0s-22.216 58.237 0 80.453c266.598 266.598 698.839 266.598 965.436 0zM854.113 475.398c22.216-22.216 22.216-58.237 0-80.453s-58.237-22.216-80.453 0c-144.407 144.407-378.538 144.407-522.945 0-22.216-22.216-58.237-22.216-80.453 0s-22.216 58.237 0 80.453c188.84 188.84 495.011 188.84 683.851 0zM713.133 333.595c22.216-22.216 22.216-58.237 0-80.453s-58.237-22.216-80.453 0c-66.649 66.649-174.71 66.649-241.359 0-22.216-22.216-58.237-22.216-80.453 0s-22.216 58.237 0 80.453c111.082 111.082 291.183 111.082 402.265 0zM512 28.445c-47.128 0-85.333 38.205-85.333 85.333s38.205 85.333 85.333 85.333c47.128 0 85.333-38.205 85.333-85.333s-38.205-85.333-85.333-85.333z" />
<glyph unicode="&#xe955;" glyph-name="no_network" d="M398.609 703.803l-84.375 95.996c233.062 70.305 496.302 13.367 680.484-170.814 22.216-22.216 22.216-58.237 0-80.453s-58.237-22.216-80.453 0c-140.077 140.077-335.028 191.834-515.656 155.272zM580.435 496.934l-104.375 118.751c135.499 10.091 274.439-36.672 378.054-140.287 22.216-22.216 22.216-58.237 0-80.453s-58.237-22.216-80.453 0c-54.766 54.766-122.438 88.763-193.225 101.989zM206.391 626.241c-34.275-21.869-66.719-47.772-96.656-77.71-22.216-22.216-58.237-22.216-80.453 0s-22.216 58.237 0 80.453c31.604 31.604 65.536 59.461 101.243 83.572l75.866-86.315zM348.132 464.978c-35.164-17.407-68.135-40.751-97.416-70.033-22.216-22.216-58.237-22.216-80.453 0s-22.216 58.237 0 80.453c30.799 30.799 64.72 56.576 100.743 77.328l77.126-87.749zM491.471 301.897c-36.606-4.41-72.057-20.662-100.15-48.755-22.216-22.216-58.237-22.216-80.453 0s-22.216 58.237 0 80.453c28.515 28.515 61.578 49.71 96.855 63.586l83.749-95.283zM512 28.445c-47.128 0-85.333 38.205-85.333 85.333s38.205 85.333 85.333 85.333c47.128 0 85.333-38.205 85.333-85.333s-38.205-85.333-85.333-85.333zM122.028 787.866c-20.737 23.855-17.935 59.769 6.258 80.216s60.615 17.684 81.352-6.17l692.335-796.443c20.737-23.855 17.935-59.769-6.258-80.216s-60.615-17.684-81.352 6.17l-692.335 796.443z" />
<glyph unicode="&#xe956;" glyph-name="select" d="M722.893 296.227l170.667-170.667c22.216-22.216 22.216-58.237 0-80.453s-58.237-22.216-80.453 0l-170.667 170.667-66.078-66.078c-6.963-6.963-15.997-11.48-25.745-12.872-24.882-3.555-47.935 13.735-51.49 38.617l-35.435 248.043c-0.61 4.269-0.61 8.603 0 12.872 3.555 24.882 26.607 42.172 51.49 38.617l248.043-35.435c9.748-1.393 18.782-5.909 25.745-12.872 17.773-17.773 17.773-46.589 0-64.362l-66.078-66.078zM227.556 85.334h215.365c31.419 0 56.889-25.47 56.889-56.889s-25.47-56.889-56.889-56.889h-272.254c-31.419 0-56.889 25.47-56.889 56.889v739.556c0 31.419 25.47 56.889 56.889 56.889h739.556c31.419 0 56.889-25.47 56.889-56.889v-272.254c0-31.419-25.47-56.889-56.889-56.889s-56.889 25.47-56.889 56.889v215.365h-625.778v-625.778z" />
<glyph unicode="&#xe957;" glyph-name="tool" d="M488.487 724.998c-64.584-64.584-83.731-160.507-50.976-244.094 8.25-21.053 3.248-44.994-12.741-60.983l-234.605-234.605c-22.216-22.216-22.216-58.237 0-80.453s58.237-22.216 80.453 0l234.605 234.605c15.989 15.989 39.929 20.991 60.983 12.741 83.587-32.755 179.51-13.607 244.094 50.976 40.269 40.269 62.874 92.723 66.247 146.773-66.856-63.661-172.669-62.67-238.312 2.973s-66.634 171.456-2.973 238.312c-54.050-3.372-106.504-25.977-146.773-66.247zM351.072 24.411c-66.649-66.649-174.71-66.649-241.359 0s-66.649 174.71 0 241.359l209.928 209.928c-31.078 116.037 0.782 242.141 88.394 329.753 96.848 96.848 240.732 125.569 366.059 76.458 38.186-14.964 48.471-64.193 19.47-93.194l-74.876-74.876c-22.216-22.216-22.216-58.237 0-80.453s58.237-22.216 80.453 0l74.876 74.876c29.001 29.001 78.23 18.716 93.194-19.47 49.111-125.327 20.39-269.211-76.458-366.059-87.612-87.612-213.716-119.471-329.753-88.394l-209.928-209.928z" />
<glyph unicode="&#xe958;" glyph-name="layer" d="M170.667 597.334v-512h512v512h-512zM113.778 711.111h625.778c31.419 0 56.889-25.47 56.889-56.889v-625.778c0-31.419-25.47-56.889-56.889-56.889h-625.778c-31.419 0-56.889 25.47-56.889 56.889v625.778c0 31.419 25.47 56.889 56.889 56.889zM284.444 768c-31.419 0-56.889 25.47-56.889 56.889s25.47 56.889 56.889 56.889h625.778c31.419 0 56.889-25.47 56.889-56.889v-625.778c0-31.419-25.47-56.889-56.889-56.889s-56.889 25.47-56.889 56.889v568.889h-568.889z" />
<glyph unicode="&#xe959;" glyph-name="location" d="M117.811 483.556c24.947 174.404 162.897 312.354 337.301 337.301v60.922c0 31.419 25.47 56.889 56.889 56.889s56.889-25.47 56.889-56.889v-60.922c174.404-24.947 312.354-162.897 337.301-337.301h60.922c31.419 0 56.889-25.47 56.889-56.889s-25.47-56.889-56.889-56.889h-60.922c-24.947-174.404-162.897-312.354-337.301-337.301v-60.922c0-31.419-25.47-56.889-56.889-56.889s-56.889 25.47-56.889 56.889v60.922c-174.404 24.947-312.354 162.897-337.301 337.301h-60.922c-31.419 0-56.889 25.47-56.889 56.889s25.47 56.889 56.889 56.889h60.922zM512 142.223c157.094 0 284.444 127.35 284.444 284.444s-127.35 284.444-284.444 284.444c-157.094 0-284.444-127.35-284.444-284.444s127.35-284.444 284.444-284.444zM512 312.889c-62.838 0-113.778 50.94-113.778 113.778s50.94 113.778 113.778 113.778c62.838 0 113.778-50.94 113.778-113.778s-50.94-113.778-113.778-113.778z" />
<glyph unicode="&#xe95a;" glyph-name="share" d="M325.41 286.822c-27.706-19.423-61.449-30.822-97.855-30.822-94.257 0-170.667 76.41-170.667 170.667s76.41 170.667 170.667 170.667c48.806 0 92.828-20.487 123.933-53.331l221.467 98.43c-2.667 12.995-4.067 26.451-4.067 40.234 0 109.966 89.145 199.111 199.111 199.111s199.111-89.145 199.111-199.111c0-109.966-89.145-199.111-199.111-199.111-55.040 0-104.864 22.332-140.904 58.43l-229.389-101.951c0.342-4.411 0.516-8.869 0.516-13.368 0-16.407-2.315-32.274-6.637-47.291l136.257-97.366c27.722 19.458 61.495 30.878 97.935 30.878 94.257 0 170.667-76.41 170.667-170.667s-76.41-170.667-170.667-170.667c-94.257 0-170.667 76.41-170.667 170.667 0 16.373 2.306 32.207 6.61 47.196l-136.31 97.404zM625.778 85.334c31.419 0 56.889 25.47 56.889 56.889s-25.47 56.889-56.889 56.889c-31.419 0-56.889-25.47-56.889-56.889s25.47-56.889 56.889-56.889zM768 597.334c47.128 0 85.333 38.205 85.333 85.333s-38.205 85.333-85.333 85.333c-47.128 0-85.333-38.205-85.333-85.333s38.205-85.333 85.333-85.333zM227.556 369.778c31.419 0 56.889 25.47 56.889 56.889s-25.47 56.889-56.889 56.889c-31.419 0-56.889-25.47-56.889-56.889s25.47-56.889 56.889-56.889z" />
<glyph unicode="&#xe95b;" glyph-name="scan" d="M227.556 711.111v-113.778c0-31.419-25.47-56.889-56.889-56.889s-56.889 25.47-56.889 56.889v170.667c0 31.419 25.47 56.889 56.889 56.889h170.667c31.419 0 56.889-25.47 56.889-56.889s-25.47-56.889-56.889-56.889h-113.778zM227.556 142.223h113.778c31.419 0 56.889-25.47 56.889-56.889s-25.47-56.889-56.889-56.889h-170.667c-31.419 0-56.889 25.47-56.889 56.889v170.667c0 31.419 25.47 56.889 56.889 56.889s56.889-25.47 56.889-56.889v-113.778zM796.444 711.111h-113.778c-31.419 0-56.889 25.47-56.889 56.889s25.47 56.889 56.889 56.889h170.667c31.419 0 56.889-25.47 56.889-56.889v-170.667c0-31.419-25.47-56.889-56.889-56.889s-56.889 25.47-56.889 56.889v113.778zM796.444 142.223v113.778c0 31.419 25.47 56.889 56.889 56.889s56.889-25.47 56.889-56.889v-170.667c0-31.419-25.47-56.889-56.889-56.889h-170.667c-31.419 0-56.889 25.47-56.889 56.889s25.47 56.889 56.889 56.889h113.778zM113.778 369.778c-31.419 0-56.889 25.47-56.889 56.889s25.47 56.889 56.889 56.889h796.444c31.419 0 56.889-25.47 56.889-56.889s-25.47-56.889-56.889-56.889h-796.444z" />
<glyph unicode="&#xe95c;" glyph-name="filter" d="M170.667 711.111v-84.158l260.179-182.125c15.208-10.646 24.265-28.042 24.265-46.605v-268.471l113.778-28.444v296.916c0 18.564 9.057 35.96 24.265 46.605l260.179 182.125v84.158h-682.667zM341.333 368.603l-260.179 182.125c-15.208 10.646-24.265 28.042-24.265 46.605v170.667c0 31.419 25.47 56.889 56.889 56.889h796.444c31.419 0 56.889-25.47 56.889-56.889v-170.667c0-18.564-9.057-35.96-24.265-46.605l-260.179-182.125v-340.158c0-37.010-34.781-64.167-70.686-55.19l-227.556 56.889c-25.325 6.331-43.091 29.086-43.091 55.19v283.269z" />
<glyph unicode="&#xe95d;" glyph-name="save" d="M682.667 744.436v-203.991c0-31.419-25.47-56.889-56.889-56.889h-227.556c-31.419 0-56.889 25.47-56.889 56.889v227.556h-170.667v-682.667h682.667v488.436l-170.667 170.667zM398.222 312.889h227.556c31.419 0 56.889-25.47 56.889-56.889s-25.47-56.889-56.889-56.889h-227.556c-31.419 0-56.889 25.47-56.889 56.889s25.47 56.889 56.889 56.889zM113.778 881.778h568.889c15.088 0 29.558-5.994 40.227-16.662l227.556-227.556c10.669-10.669 16.662-25.139 16.662-40.227v-568.889c0-31.419-25.47-56.889-56.889-56.889h-796.444c-31.419 0-56.889 25.47-56.889 56.889v796.444c0 31.419 25.47 56.889 56.889 56.889zM455.111 597.334h113.778v170.667h-113.778v-170.667z" />
<glyph unicode="&#xe95e;" glyph-name="loading" d="M113.778 483.556h142.222c31.419 0 56.889-25.47 56.889-56.889s-25.47-56.889-56.889-56.889h-142.222c-31.419 0-56.889 25.47-56.889 56.889s25.47 56.889 56.889 56.889zM270.641 748.479l100.566-100.566c22.216-22.216 22.216-58.237 0-80.453s-58.237-22.216-80.453 0l-100.566 100.566c-22.216 22.216-22.216 58.237 0 80.453s58.237 22.216 80.453 0zM568.889 824.889v-142.222c0-31.419-25.47-56.889-56.889-56.889s-56.889 25.47-56.889 56.889v142.222c0 31.419 25.47 56.889 56.889 56.889s56.889-25.47 56.889-56.889zM833.812 668.026l-100.566-100.566c-22.216-22.216-58.237-22.216-80.453 0s-22.216 58.237 0 80.453l100.566 100.566c22.216 22.216 58.237 22.216 80.453 0s22.216-58.237 0-80.453zM910.222 369.778h-142.222c-31.419 0-56.889 25.47-56.889 56.889s25.47 56.889 56.889 56.889h142.222c31.419 0 56.889-25.47 56.889-56.889s-25.47-56.889-56.889-56.889zM753.359 104.855c-22.216 22.216-22.216 58.237 0 80.453s58.237 22.216 80.453 0c22.216-22.216 22.216-58.237 0-80.453s-58.237-22.216-80.453 0zM455.111 28.445v56.889c0 31.419 25.47 56.889 56.889 56.889s56.889-25.47 56.889-56.889v-56.889c0-31.419-25.47-56.889-56.889-56.889s-56.889 25.47-56.889 56.889zM190.188 185.308l80.453 80.453c22.216 22.216 58.237 22.216 80.453 0s22.216-58.237 0-80.453l-80.453-80.453c-22.216-22.216-58.237-22.216-80.453 0s-22.216 58.237 0 80.453z" />
<glyph unicode="&#xe95f;" glyph-name="history" d="M113.778 824.889c0 31.419 25.47 56.889 56.889 56.889h512c15.088 0 29.558-5.994 40.227-16.662l170.667-170.667c10.669-10.669 16.662-25.139 16.662-40.227v-625.778c0-31.419-25.47-56.889-56.889-56.889h-682.667c-31.419 0-56.889 25.47-56.889 56.889v796.444zM227.556 768v-682.667h568.889v545.325l-137.342 137.342h-431.547zM366.666 303.335l145.334 96.889v197.11c0 31.419 25.47 56.889 56.889 56.889s56.889-25.47 56.889-56.889v-227.556c0-19.021-9.506-36.783-25.333-47.334l-170.667-113.778c-26.142-17.428-61.463-10.364-78.891 15.778s-10.364 61.463 15.778 78.891z" />
<glyph unicode="&#xe960;" glyph-name="configure" d="M580.723 768c21.947 50.23 72.068 85.333 130.388 85.333s108.442-35.103 130.388-85.333h68.723c31.419 0 56.889-25.47 56.889-56.889s-25.47-56.889-56.889-56.889h-68.723c-21.947-50.23-72.068-85.333-130.388-85.333s-108.442 35.103-130.388 85.333h-466.945c-31.419 0-56.889 25.47-56.889 56.889s25.47 56.889 56.889 56.889h466.945zM182.501 483.556c21.946 50.23 72.068 85.333 130.388 85.333s108.442-35.103 130.388-85.333h466.945c31.419 0 56.889-25.47 56.889-56.889s-25.47-56.889-56.889-56.889h-466.945c-21.946-50.23-72.068-85.333-130.388-85.333s-108.442 35.103-130.388 85.333h-68.723c-31.419 0-56.889 25.47-56.889 56.889s25.47 56.889 56.889 56.889h68.723zM523.834 199.111c21.946 50.23 72.068 85.333 130.388 85.333s108.442-35.103 130.388-85.333h125.612c31.419 0 56.889-25.47 56.889-56.889s-25.47-56.889-56.889-56.889h-125.612c-21.947-50.23-72.068-85.333-130.388-85.333s-108.442 35.103-130.388 85.333h-410.056c-31.419 0-56.889 25.47-56.889 56.889s25.47 56.889 56.889 56.889h410.056zM711.111 682.667c15.709 0 28.444 12.735 28.444 28.444s-12.735 28.444-28.444 28.444c-15.709 0-28.444-12.735-28.444-28.444s12.735-28.444 28.444-28.444zM312.889 398.223c15.709 0 28.444 12.735 28.444 28.444s-12.735 28.444-28.444 28.444c-15.709 0-28.444-12.735-28.444-28.444s12.735-28.444 28.444-28.444zM654.222 113.778c15.709 0 28.444 12.735 28.444 28.444s-12.735 28.444-28.444 28.444c-15.709 0-28.444-12.735-28.444-28.444s12.735-28.444 28.444-28.444z" />
<glyph unicode="&#xe961;" glyph-name="document" d="M170.667 253.876c7.205 1.396 14.664 2.125 22.349 2.125h603.429v568.889h-625.778v-571.014zM56.889 85.334v796.444c0 31.419 25.47 56.889 56.889 56.889h739.556c31.419 0 56.889-25.47 56.889-56.889v-682.667c0-31.419-25.47-56.889-56.889-56.889h-660.317c-7.032 0-22.349-21.994-22.349-56.889s15.317-56.889 22.349-56.889h717.206c31.419 0 56.889-25.47 56.889-56.889s-25.47-56.889-56.889-56.889h-717.206c-80.492 0-136.127 79.886-136.127 170.667zM284.444 711.111h341.333c31.419 0 56.889-25.47 56.889-56.889s-25.47-56.889-56.889-56.889h-341.333c-31.419 0-56.889 25.47-56.889 56.889s25.47 56.889 56.889 56.889zM284.444 483.556h170.667c31.419 0 56.889-25.47 56.889-56.889s-25.47-56.889-56.889-56.889h-170.667c-31.419 0-56.889 25.47-56.889 56.889s25.47 56.889 56.889 56.889z" />
<glyph unicode="&#xe962;" glyph-name="user_group" d="M852.487 356.822l129.283-34.475c24.903-6.641 42.231-29.194 42.231-54.968v-182.044c0-31.419-25.47-56.889-56.889-56.889h-113.778v113.778h56.889v81.449l-56.889 15.17v108.181c0 3.328-0.289 6.603-0.847 9.799zM604.034 457.88c26.201 27.457 46.963 60.149 60.559 96.347 13.381-8.717 29.358-13.782 46.518-13.782 47.128 0 85.333 38.205 85.333 85.333s-38.205 85.333-85.333 85.333c-11.654 0-22.762-2.336-32.882-6.566-6.869 38.476-21.474 74.272-42.148 105.722 23.156 9.427 48.487 14.621 75.030 14.621 109.966 0 199.111-89.145 199.111-199.111s-89.145-199.111-199.111-199.111c-39.416 0-76.157 11.453-107.077 31.213zM398.222 426.667c-125.675 0-227.556 101.88-227.556 227.556s101.88 227.556 227.556 227.556c125.675 0 227.556-101.88 227.556-227.556s-101.88-227.556-227.556-227.556zM398.222 540.445c62.838 0 113.778 50.94 113.778 113.778s-50.94 113.778-113.778 113.778c-62.838 0-113.778-50.94-113.778-113.778s50.94-113.778 113.778-113.778zM43.091 311.191l227.556 56.889c4.512 1.128 9.146 1.699 13.798 1.699h227.556c4.651 0 9.285-0.57 13.798-1.699l227.556-56.889c25.325-6.331 43.091-29.086 43.091-55.19v-227.556c0-31.419-25.47-56.889-56.889-56.889h-682.667c-31.419 0-56.889 25.47-56.889 56.889v227.556c0 26.104 17.766 48.859 43.091 55.19zM113.778 85.334h568.889v126.249l-177.67 44.418h-213.549l-177.67-44.418v-126.249z" />
<glyph unicode="&#xe963;" glyph-name="administrator" d="M625.778 142.223l-113.778-113.778-113.778 113.778 56.889 170.667v56.889h113.778v-56.889l56.889-170.667zM478.569 428.83c-125.588 16.38-222.569 123.783-222.569 253.837 0 141.385 114.615 256 256 256s256-114.615 256-256c0-130.054-96.98-237.457-222.569-253.837h-66.863zM398.681 369.778v-46.736l-24.611-72.999-203.402-40.68v-180.918h682.667v180.918l-203.416 40.683-24.619 72.996v46.736h0.479l11.157-1.105 284.444-56.889c26.591-5.318 45.732-28.666 45.732-55.784v-284.444c0-31.419-25.47-56.889-56.889-56.889h-796.444c-31.419 0-56.889 25.47-56.889 56.889v284.444c0 27.118 19.141 50.466 45.732 55.784l284.444 56.889 11.157 1.105h0.458zM512 540.445c78.547 0 142.222 63.675 142.222 142.222s-63.675 142.222-142.222 142.222c-78.547 0-142.222-63.675-142.222-142.222s63.675-142.222 142.222-142.222z" />
<glyph unicode="&#xe964;" glyph-name="alarm_box" d="M796.444 654.223v113.778h-568.889v-113.778h568.889zM796.444 540.445h-568.889v-455.111h568.889v455.111zM227.556 881.778h568.889c62.838 0 113.778-50.94 113.778-113.778v-682.667c0-62.838-50.94-113.778-113.778-113.778h-568.889c-62.838 0-113.778 50.94-113.778 113.778v682.667c0 62.838 50.94 113.778 113.778 113.778zM512 483.556c31.419 0 56.889-25.47 56.889-56.889v-85.333c0-31.419-25.47-56.889-56.889-56.889s-56.889 25.47-56.889 56.889v85.333c0 31.419 25.47 56.889 56.889 56.889zM512 256c31.419 0 56.889-25.47 56.889-56.889s-25.47-56.889-56.889-56.889c-31.419 0-56.889 25.47-56.889 56.889s25.47 56.889 56.889 56.889z" />
<glyph unicode="&#xe965;" glyph-name="alarm_portal" d="M92.766 202.712v319.971c0 154.764 106.309 283.89 247.637 313.561v38.451c0 35.368 27.67 63.972 61.883 63.972s61.882-28.604 61.882-63.972v-38.451c141.329-29.671 247.638-158.797 247.638-313.561v-319.971h31.001c34.093 0 61.765-28.367 61.765-63.972 0-35.368-27.671-63.972-61.765-63.972h-681.042c-34.095 0-61.765 28.367-61.765 63.972 0 35.368 27.67 63.972 61.765 63.972h31.001zM495.163 10.679c0-53.053-41.562-96.012-92.878-96.012-51.32 0-92.876 42.959-92.876 96.012h185.754z" />
<glyph unicode="&#xe966;" glyph-name="mute" d="M370.375 763.717l101.399 101.399c10.669 10.669 25.139 16.662 40.227 16.662h56.889c31.419 0 56.889-25.47 56.889-56.889v-354.981l-113.778 130.887v143.641l-66.798-66.798-74.827 86.079zM625.778 121.652v-93.207c0-31.419-25.47-56.889-56.889-56.889h-56.889c-15.088 0-29.558 5.994-40.227 16.662l-210.893 210.893h-147.103c-31.419 0-56.889 25.47-56.889 56.889v341.333c0 31.419 25.47 56.889 56.889 56.889h49.045l98.905-113.778h-91.062v-227.556h113.778c15.088 0 29.558-5.994 40.227-16.662l187.329-187.329v143.641l113.778-130.887zM917.623 134.177l-75.889 87.301c43.702 58.029 68.488 129.501 68.488 205.189 0 113.048-55.295 216.691-146.324 280.185-25.769 17.975-32.088 53.436-14.113 79.205s53.436 32.088 79.205 14.113c121.218-84.553 195.010-222.862 195.010-373.504 0-109.25-38.811-212.013-106.377-292.49zM803.373 265.607l-78.9 90.765c9.837 21.741 15.082 45.585 15.082 70.295 0 42.207-15.303 81.887-42.652 112.873-20.791 23.556-18.549 59.506 5.007 80.297s59.506 18.549 80.297-5.007c45.525-51.58 71.126-117.96 71.126-188.163 0-58.448-17.745-114.247-49.96-161.060zM122.028 787.866c-20.737 23.855-17.935 59.769 6.258 80.216s60.615 17.684 81.352-6.17l692.335-796.443c20.737-23.855 17.935-59.769-6.258-80.216s-60.615-17.684-81.352 6.17l-692.335 796.443z" />
<glyph unicode="&#xe967;" glyph-name="no_alarm_box" d="M366.651 768l-98.905 113.778h528.699c62.838 0 113.778-50.94 113.778-113.778v-625.31l-113.778 130.887v266.868h-231.984l-98.905 113.778h330.889v113.778h-429.794zM261.728 540.445h-34.172v-455.111h429.793l98.905-113.778h-528.698c-62.838 0-113.778 50.94-113.778 113.778v625.309l147.95-170.197zM567.859 188.28c-5.058-26.238-28.144-46.057-55.859-46.057-31.419 0-56.889 25.47-56.889 56.889 0 30.431 23.894 55.282 53.945 56.814l58.803-67.646zM122.028 787.865c-20.737 23.855-17.935 59.769 6.258 80.216s60.615 17.684 81.352-6.17l692.335-796.443c20.737-23.855 17.935-59.769-6.258-80.216s-60.615-17.684-81.352 6.17l-692.335 796.443z" />
<glyph unicode="&#xe968;" glyph-name="sound" d="M260.88 654.223l210.893 210.893c10.669 10.669 25.139 16.662 40.227 16.662h56.889c31.419 0 56.889-25.47 56.889-56.889v-796.444c0-31.419-25.47-56.889-56.889-56.889h-56.889c-15.088 0-29.558 5.994-40.227 16.662l-210.893 210.893h-147.103c-31.419 0-56.889 25.47-56.889 56.889v341.333c0 31.419 25.47 56.889 56.889 56.889h147.103zM512 744.436l-187.329-187.329c-10.669-10.669-25.139-16.662-40.227-16.662h-113.778v-227.556h113.778c15.088 0 29.558-5.994 40.227-16.662l187.329-187.329v635.538zM763.898 706.852c-25.769 17.975-32.088 53.436-14.113 79.205s53.436 32.088 79.205 14.113c121.218-84.553 195.010-222.862 195.010-373.504s-73.791-288.951-195.010-373.504c-25.769-17.975-61.231-11.656-79.205 14.113s-11.656 61.231 14.113 79.205c91.028 63.494 146.324 167.137 146.324 280.185s-55.295 216.691-146.324 280.185zM696.904 539.54c-20.791 23.556-18.549 59.506 5.007 80.297s59.506 18.549 80.297-5.007c45.525-51.58 71.126-117.96 71.126-188.163s-25.601-136.584-71.126-188.163c-20.791-23.556-56.741-25.797-80.297-5.007s-25.797 56.741-5.007 80.297c27.348 30.985 42.652 70.666 42.652 112.873s-15.303 81.887-42.652 112.873z" />
<glyph unicode="&#xe969;" glyph-name="AD" d="M873.16 864.023c26.706 0 48.354-20.51 48.354-45.81v-458.102h-96.709v412.292h-676.98v-687.156h80.77v-91.624h-129.125c-26.707 0-48.355 20.514-48.355 45.814v778.776c0 25.3 21.648 45.81 48.355 45.81h773.691zM255.914 556.823h460.8v102.4h-460.8v-102.4zM255.914 403.223h307.2v102.4h-307.2v-102.4zM803.335 63.113c40.024 0 72.594 31.993 72.594 71.313 0 39.316-32.57 71.314-72.594 71.314h-24.196v-142.627h24.196zM803.335 300.823c93.401 0 169.38-74.643 169.38-166.398 0-91.759-75.978-166.402-169.38-166.402h-72.589c-26.728 0-48.393 21.29-48.393 47.542v237.715c0 26.258 21.665 47.542 48.393 47.542h72.589zM456.163 134.426h65.235l-20.714 71.314h-23.809l-20.712-71.314zM537.176 300.823c21.593-0.006 40.567-14.069 46.503-34.468l86.768-298.332h-100.658l-20.712 71.319h-120.593l-20.714-71.319h-100.656l86.766 298.332c5.938 20.398 24.912 34.462 46.504 34.468h96.791z" />
<glyph unicode="&#xe96a;" glyph-name="menu_group" d="M455.111 824.889h455.111c31.419 0 56.889-25.47 56.889-56.889s-25.47-56.889-56.889-56.889h-455.111c-31.419 0-56.889 25.47-56.889 56.889s25.47 56.889 56.889 56.889zM455.111 597.334h455.111c31.419 0 56.889-25.47 56.889-56.889s-25.47-56.889-56.889-56.889h-455.111c-31.419 0-56.889 25.47-56.889 56.889s25.47 56.889 56.889 56.889zM455.111 142.223h455.111c31.419 0 56.889-25.47 56.889-56.889s-25.47-56.889-56.889-56.889h-455.111c-31.419 0-56.889 25.47-56.889 56.889s25.47 56.889 56.889 56.889zM455.111 369.778h455.111c31.419 0 56.889-25.47 56.889-56.889s-25.47-56.889-56.889-56.889h-455.111c-31.419 0-56.889 25.47-56.889 56.889s25.47 56.889 56.889 56.889zM142.222 881.778h113.778c47.128 0 85.333-38.205 85.333-85.333v-227.556c0-47.128-38.205-85.333-85.333-85.333h-113.778c-47.128 0-85.333 38.205-85.333 85.333v227.556c0 47.128 38.205 85.333 85.333 85.333zM170.667 768v-170.667h56.889v170.667h-56.889zM142.222 369.778h113.778c47.128 0 85.333-38.205 85.333-85.333v-227.556c0-47.128-38.205-85.333-85.333-85.333h-113.778c-47.128 0-85.333 38.205-85.333 85.333v227.556c0 47.128 38.205 85.333 85.333 85.333zM170.667 256v-170.667h56.889v170.667h-56.889z" />
<glyph unicode="&#xe96b;" glyph-name="shortcut" d="M827.856 637.408c-201.919-95.378-346.547-230.865-435.767-407.102-14.191-28.031-48.419-39.251-76.45-25.060s-39.251 48.419-25.061 76.45c98.855 195.269 257.467 345.995 474.065 451.572l-136.858 36.671c-30.348 8.132-48.358 39.326-40.227 69.674s39.326 48.358 69.674 40.227l274.752-73.62c30.348-8.132 48.358-39.326 40.227-69.674l-73.62-274.752c-8.132-30.348-39.326-48.358-69.674-40.227s-48.358 39.326-40.227 69.674l39.165 146.166zM796.444 85.334v170.667c0 31.419 25.47 56.889 56.889 56.889s56.889-25.47 56.889-56.889v-227.556c0-31.419-25.47-56.889-56.889-56.889h-739.556c-31.419 0-56.889 25.47-56.889 56.889v739.556c0 31.419 25.47 56.889 56.889 56.889h284.444c31.419 0 56.889-25.47 56.889-56.889s-25.47-56.889-56.889-56.889h-227.556v-625.778h625.778z" />
<glyph unicode="&#xe96c;" glyph-name="application" d="M696.044 369.778c-9.215 2.521-17.92 7.402-25.159 14.641l-201.133 201.133c-7.239 7.239-12.119 15.944-14.641 25.159v-127.155c0-31.419-25.47-56.889-56.889-56.889h-284.444c-31.419 0-56.889 25.47-56.889 56.889v284.444c0 31.419 25.47 56.889 56.889 56.889h284.444c31.419 0 56.889-25.47 56.889-56.889v-127.154c2.521 9.215 7.402 17.92 14.641 25.159l201.133 201.133c22.216 22.216 58.237 22.216 80.453 0l201.133-201.133c22.216-22.216 22.216-58.237 0-80.453l-201.133-201.133c-7.239-7.239-15.944-12.119-25.159-14.641h127.155c31.419 0 56.889-25.47 56.889-56.889v-284.444c0-31.419-25.47-56.889-56.889-56.889h-284.444c-31.419 0-56.889 25.47-56.889 56.889v284.444c0 31.419 25.47 56.889 56.889 56.889h127.155zM170.667 711.111v-170.667h170.667v170.667h-170.667zM56.889 312.889c0 31.419 25.47 56.889 56.889 56.889h284.444c31.419 0 56.889-25.47 56.889-56.889v-284.444c0-31.419-25.47-56.889-56.889-56.889h-284.444c-31.419 0-56.889 25.47-56.889 56.889v284.444zM170.667 256v-170.667h170.667v170.667h-170.667zM711.111 746.458l-120.68-120.68 120.68-120.68 120.68 120.68-120.68 120.68zM625.778 256v-170.667h170.667v170.667h-170.667z" />
<glyph unicode="&#xe96d;" glyph-name="language" d="M512 910.223c267.060 0 483.556-216.495 483.556-483.556s-216.495-483.556-483.556-483.556c-267.060 0-483.556 216.495-483.556 483.556s216.495 483.556 483.556 483.556zM306.352 255.956l-122.436-0.032c41.806-80.166 112.132-143.093 197.52-175.325-33.879 55.98-58.934 114.473-75.084 175.357zM840.086 255.924l-122.434 0.032c-16.145-60.883-41.189-119.374-75.044-175.351 85.361 32.227 155.676 95.153 197.477 175.318zM599.042 255.967h-174.084c18.903-57.789 47.872-113.070 87.042-166.035 39.17 52.965 68.139 108.246 87.042 166.035zM286.776 483.566l-140.208-0.028c-2.862-18.538-4.346-37.531-4.346-56.87 0-19.351 1.486-38.354 4.351-56.903l140.208-0.052c-1.557 18.785-2.337 37.771-2.337 56.955 0 19.165 0.778 38.132 2.332 56.899zM622.976 483.535h-221.952c-1.869-18.707-2.802-37.662-2.802-56.868 0-19.226 0.934-38.199 2.807-56.925h221.941c1.873 18.726 2.807 37.699 2.807 56.925 0 19.207-0.933 38.161-2.802 56.868zM877.435 483.514l-140.212 0.053c1.554-18.767 2.332-37.734 2.332-56.899 0-19.184-0.78-38.17-2.337-56.955l140.208 0.052c2.865 18.549 4.351 37.552 4.351 56.903 0 19.331-1.483 38.316-4.343 56.847zM381.391 772.728l-7.53-2.949c-82.004-33.046-149.438-94.638-189.995-172.467l122.467 0.008c16.144 60.903 41.193 119.414 75.059 175.407zM512 763.402l-13.044-18.27c-32.635-47.394-57.276-96.624-74.017-147.822h174.121c-16.74 51.198-41.381 100.428-74.017 147.822l-13.044 18.27zM642.564 772.735l3.871-6.406c31.936-54.054 55.708-110.433 71.238-169.027l122.44 0.052c-41.802 80.193-112.141 143.143-197.549 175.382z" />
<glyph unicode="&#xe96e;" glyph-name="theme" d="M525.937 881.778c258.998 0 441.175-191.985 441.175-411.307 0-173.138-128.007-273.755-279.809-275.943l-23.811-0.022c-18.347-1.171-32.27-16.994-31.099-35.341 0.255-3.993 1.228-7.907 2.87-11.556l0.098-0.221c6.106-13.835 9.19-29.672 9.19-49.256 0-71.309-57.436-126.578-132.55-126.578-244.399 0-455.111 208.562-455.111 455.111 0 255.419 199.692 455.111 469.048 455.111zM525.937 768c-206.518 0-355.27-148.752-355.27-341.333 0-183.449 159.512-341.333 341.333-341.333l1.285-0.009c8.854-0.126 16.134 6.95 16.259 15.804l-0.105 2.074-0.372 2.043-8.053 37.965c-15.646 73.764 31.467 146.245 105.23 161.892 8.257 1.751 16.658 2.733 25.096 2.933 3.913 0.093 7.812 0.164 11.697 0.213l23.98 0.097c94.846 2.207 166.316 59.569 166.316 162.126 0 157.779-132.61 297.529-327.397 297.529zM331.378 558.080c38.788 0 71.111-32.324 71.111-71.111s-32.324-71.111-71.111-71.111c-38.788 0-71.111 32.324-71.111 71.111s32.323 71.111 71.111 71.111zM703.38 558.080c38.759 0 71.060-32.324 71.060-71.111 2.154-38.787-30.147-71.111-71.060-71.111-38.759 0-71.060 32.324-71.060 71.111s32.301 71.111 71.060 71.111zM519.68 678.4c38.788 0 71.111-32.323 71.111-71.111s-30.169-71.111-71.111-71.111c-38.788 0-71.111 32.324-71.111 71.111s32.323 71.111 71.111 71.111z" />
</font>
</defs>
</svg>
